{
.appVersion = "3134";
.formatVersion = 3;
DisplayStrings = (
"$%&+<=>@^|~¢£¥©®°×÷€™−  !\"#'()*,-.//:;?[/backslash ]_{}·–—‘’“”•…0123456789`ABCDEFGHIJKLMNOPQRSTUVWXYZabcdefghijklmnopqrstuvwxyz
Norm Grotesk, the most
normal typical font ever."
);
axes = (
{
name = Weight;
tag = wght;
}
);
date = "2026-01-19 15:29:46 +0000";
familyName = "Norm Grotesk Alpha";
fontMaster = (
{
axesValues = (
400
);
customParameters = (
{
name = "Master Icon Glyph Name";
value = a;
}
);
id = m01;
metricValues = (
{
over = 16;
pos = 800;
},
{
over = 16;
pos = 700;
},
{
over = 16;
pos = 500;
},
{
over = -16;
},
{
over = -16;
pos = -200;
},
{
over = -16;
}
);
name = Regular;
userData = {
GSCornerRadius = 50;
com.fontlab.layer.locked = 0;
com.fontlab.layer.name = Regular;
com.fontlab.layer.opacity = 1;
com.fontlab.layer.service = 0;
com.fontlab.layer.visible = 1;
com.fontlab.layer.wireframe = 0;
};
},
{
axesValues = (
1000
);
customParameters = (
{
name = "Master Icon Glyph Name";
value = a;
}
);
id = m002;
metricValues = (
{
over = 16;
pos = 800;
},
{
over = 16;
pos = 700;
},
{
over = 16;
pos = 515;
},
{
over = -16;
},
{
over = -16;
pos = -200;
},
{
over = -16;
}
);
name = Super;
userData = {
GSCornerRadius = 50;
com.fontlab.layer.locked = 0;
com.fontlab.layer.name = Regular;
com.fontlab.layer.opacity = 1;
com.fontlab.layer.service = 0;
com.fontlab.layer.visible = 1;
com.fontlab.layer.wireframe = 0;
};
}
);
glyphs = (
{
glyphname = A;
kernLeft = A2;
kernRight = A;
lastChange = "2026-01-21 14:19:55 +0000";
layers = (
{
anchors = (
{
name = bottom;
pos = (329,0);
},
{
name = ogonek;
pos = (633,0);
},
{
name = top;
pos = (329,700);
}
);
layerId = m01;
shapes = (
{
closed = 1;
nodes = (
(116,0,l),
(344,645,l),
(312,645,l),
(541,0,l),
(633,0,l),
(378,700,l),
(280,700,l),
(25,0,l)
);
},
{
closed = 1;
nodes = (
(515,166,l),
(515,243,l),
(149,243,l),
(149,166,l)
);
}
);
width = 658;
},
{
anchors = (
{
name = bottom;
pos = (371,0);
},
{
name = ogonek;
pos = (675,0);
},
{
name = top;
pos = (371,700);
}
);
layerId = m002;
shapes = (
{
closed = 1;
nodes = (
(238,0,l),
(416,645,l),
(334,645,l),
(513,0,l),
(755,0,l),
(510,700,l),
(242,700,l),
(-3,0,l)
);
},
{
closed = 1;
nodes = (
(567,96,l),
(567,273,l),
(201,273,l),
(201,96,l)
);
}
);
width = 752;
}
);
unicode = 65;
},
{
glyphname = AE;
lastChange = "2026-01-21 14:23:08 +0000";
layers = (
{
layerId = m01;
shapes = (
{
closed = 1;
nodes = (
(116,0,l),
(494,645,l),
(528,700,l),
(430,700,l),
(25,0,l)
);
},
{
closed = 1;
nodes = (
(514,166,l),
(514,243,l),
(188,243,l),
(188,166,l)
);
},
{
closed = 1;
nodes = (
(567,0,l),
(567,700,l),
(480,700,l),
(480,0,l)
);
},
{
closed = 1;
nodes = (
(923,0,l),
(923,76,l),
(507,76,l),
(507,0,l)
);
},
{
closed = 1;
nodes = (
(845,324,l),
(845,400,l),
(507,400,l),
(507,324,l)
);
},
{
closed = 1;
nodes = (
(923,624,l),
(923,700,l),
(507,700,l),
(507,624,l)
);
}
);
width = 983;
},
{
layerId = m002;
shapes = (
{
closed = 1;
nodes = (
(88,0,l),
(466,645,l),
(500,700,l),
(402,700,l),
(-3,0,l)
);
},
{
closed = 1;
nodes = (
(486,166,l),
(486,243,l),
(160,243,l),
(160,166,l)
);
},
{
closed = 1;
nodes = (
(539,0,l),
(539,700,l),
(452,700,l),
(452,0,l)
);
},
{
closed = 1;
nodes = (
(895,0,l),
(895,76,l),
(479,76,l),
(479,0,l)
);
},
{
closed = 1;
nodes = (
(817,324,l),
(817,400,l),
(479,400,l),
(479,324,l)
);
},
{
closed = 1;
nodes = (
(895,624,l),
(895,700,l),
(479,700,l),
(479,624,l)
);
}
);
width = 923;
}
);
metricLeft = A;
metricRight = E;
unicode = 198;
},
{
glyphname = B;
kernLeft = B2;
kernRight = B;
lastChange = "2026-01-21 14:21:19 +0000";
layers = (
{
anchors = (
{
name = bottom;
pos = (317,0);
},
{
name = center;
pos = (317,350);
},
{
name = top;
pos = (317,700);
}
);
layerId = m01;
shapes = (
{
closed = 1;
nodes = (
(357,0,ls),
(491,0,o),
(583,81,o),
(583,198,cs),
(583,305,o),
(491,379,o),
(357,379,cs),
(127,379,l),
(127,316,l),
(357,316,ls),
(440,316,o),
(497,268,o),
(497,198,cs),
(497,129,o),
(440,81,o),
(357,81,cs),
(127,81,l),
(127,0,l)
);
},
{
closed = 1;
nodes = (
(177,0,l),
(177,700,l),
(90,700,l),
(90,0,l)
);
},
{
closed = 1;
nodes = (
(346,347,ls),
(474,347,o),
(562,415,o),
(562,514,cs),
(562,624,o),
(474,700,o),
(346,700,cs),
(116,700,l),
(116,619,l),
(346,619,ls),
(423,619,o),
(476,576,o),
(476,514,cs),
(476,445,o),
(423,398,o),
(346,398,cs),
(116,398,l),
(116,347,l)
);
}
);
width = 633;
},
{
anchors = (
{
name = bottom;
pos = (331,0);
},
{
name = center;
pos = (331,350);
},
{
name = top;
pos = (331,700);
}
);
layerId = m002;
shapes = (
{
closed = 1;
nodes = (
(437,0,ls),
(571,0,o),
(663,81,o),
(663,198,cs),
(663,306,o),
(567,380,o),
(427,380,cs),
(147,380,l),
(147,277,l),
(377,277,ls),
(413,277,o),
(438,256,o),
(438,225,cs),
(438,189,o),
(413,165,o),
(377,165,cs),
(147,165,l),
(147,0,l)
);
},
{
closed = 1;
nodes = (
(265,0,l),
(265,700,l),
(42,700,l),
(42,0,l)
);
},
{
closed = 1;
nodes = (
(416,347,ls),
(550,347,o),
(642,415,o),
(642,514,cs),
(642,624,o),
(554,700,o),
(426,700,cs),
(136,700,l),
(136,535,l),
(366,535,ls),
(396,535,o),
(417,515,o),
(417,487,cs),
(417,457,o),
(396,437,o),
(366,437,cs),
(136,437,l),
(136,347,l)
);
}
);
width = 683;
}
);
unicode = 66;
},
{
glyphname = C;
kernLeft = C2;
kernRight = C;
lastChange = "2026-01-19 19:28:01 +0000";
layers = (
{
anchors = (
{
name = bottom;
pos = (360,0);
},
{
name = top;
pos = (360,700);
}
);
layerId = m01;
shapes = (
{
closed = 1;
nodes = (
(499,-16,o),
(609,72,o),
(644,196,c),
(562,216,l),
(539,124,o),
(459,62,o),
(362,62,cs),
(230,62,o),
(138,179,o),
(138,350,cs),
(138,521,o),
(230,638,o),
(362,638,cs),
(459,638,o),
(539,576,o),
(562,484,c),
(644,504,l),
(609,628,o),
(499,716,o),
(362,716,cs),
(182,716,o),
(50,567,o),
(50,350,cs),
(50,133,o),
(182,-16,o),
(362,-16,cs)
);
}
);
width = 679;
},
{
anchors = (
{
name = bottom;
pos = (405,0);
},
{
name = top;
pos = (405,700);
}
);
layerId = m002;
shapes = (
{
closed = 1;
nodes = (
(537,-16,o),
(667,70,o),
(719,196,c),
(522,273,l),
(510,208,o),
(459,164,o),
(395,164,cs),
(311,164,o),
(252,240,o),
(252,350,cs),
(252,460,o),
(311,536,o),
(395,536,cs),
(459,536,o),
(510,492,o),
(522,427,c),
(719,504,l),
(667,630,o),
(537,716,o),
(382,716,cs),
(178,716,o),
(26,567,o),
(26,350,cs),
(26,133,o),
(178,-16,o),
(382,-16,cs)
);
}
);
width = 735;
}
);
unicode = 67;
},
{
glyphname = D;
kernLeft = B2;
kernRight = D;
lastChange = "2026-01-21 14:18:47 +0000";
layers = (
{
anchors = (
{
name = bottom;
pos = (347,0);
},
{
name = center;
pos = (347,350);
},
{
name = top;
pos = (347,700);
}
);
layerId = m01;
shapes = (
{
closed = 1;
nodes = (
(303,0,ls),
(505,0,o),
(643,143,o),
(643,350,cs),
(643,557,o),
(505,700,o),
(303,700,cs),
(127,700,l),
(127,619,l),
(303,619,ls),
(452,619,o),
(555,509,o),
(555,350,cs),
(555,191,o),
(452,81,o),
(303,81,cs),
(127,81,l),
(127,0,l)
);
},
{
closed = 1;
nodes = (
(177,0,l),
(177,700,l),
(90,700,l),
(90,0,l)
);
}
);
width = 693;
},
{
anchors = (
{
name = bottom;
pos = (339,0);
},
{
name = center;
pos = (339,350);
},
{
name = top;
pos = (339,700);
}
);
layerId = m002;
shapes = (
{
closed = 1;
nodes = (
(323,0,ls),
(552,0,o),
(701,138,o),
(701,350,cs),
(701,562,o),
(552,700,o),
(323,700,cs),
(147,700,l),
(147,525,l),
(323,525,ls),
(421,525,o),
(477,461,o),
(477,350,cs),
(477,239,o),
(421,175,o),
(323,175,cs),
(147,175,l),
(147,0,l)
);
},
{
closed = 1;
nodes = (
(265,0,l),
(265,700,l),
(42,700,l),
(42,0,l)
);
}
);
width = 727;
}
);
unicode = 68;
},
{
glyphname = Eth;
lastChange = "2026-01-21 14:23:08 +0000";
layers = (
{
layerId = m01;
shapes = (
{
pos = (-7,0);
ref = D;
},
{
closed = 1;
nodes = (
(10,306,l),
(346,306,l),
(346,376,l),
(10,376,l)
);
}
);
width = 686;
},
{
layerId = m002;
shapes = (
{
pos = (-7,0);
ref = D;
},
{
closed = 1;
nodes = (
(10,306,l),
(346,306,l),
(346,376,l),
(10,376,l)
);
}
);
width = 720;
}
);
metricRight = D;
unicode = 208;
},
{
glyphname = E;
kernLeft = B2;
kernRight = E;
lastChange = "2026-01-21 03:32:08 +0000";
layers = (
{
anchors = (
{
name = bottom;
pos = (332,0);
},
{
name = ogonek;
pos = (543,0);
},
{
name = top;
pos = (332,700);
},
{
name = topleft;
pos = (20,700);
}
);
layerId = m01;
shapes = (
{
closed = 1;
nodes = (
(177,0,l),
(177,700,l),
(90,700,l),
(90,0,l)
);
},
{
closed = 1;
nodes = (
(543,0,l),
(543,76,l),
(147,76,l),
(147,0,l)
);
},
{
closed = 1;
nodes = (
(465,324,l),
(465,400,l),
(147,400,l),
(147,324,l)
);
},
{
closed = 1;
nodes = (
(543,624,l),
(543,700,l),
(147,700,l),
(147,624,l)
);
}
);
width = 603;
},
{
anchors = (
{
name = bottom;
pos = (352,0);
},
{
name = ogonek;
pos = (563,0);
},
{
name = top;
pos = (352,700);
},
{
name = topleft;
pos = (40,700);
}
);
layerId = m002;
shapes = (
{
closed = 1;
nodes = (
(265,0,l),
(265,700,l),
(42,700,l),
(42,0,l)
);
},
{
closed = 1;
nodes = (
(583,0,l),
(583,185,l),
(188,185,l),
(188,0,l)
);
},
{
closed = 1;
nodes = (
(505,268,l),
(505,443,l),
(188,443,l),
(188,268,l)
);
},
{
closed = 1;
nodes = (
(583,515,l),
(583,700,l),
(188,700,l),
(188,515,l)
);
}
);
width = 611;
}
);
unicode = 69;
},
{
glyphname = F;
kernLeft = B2;
kernRight = F;
lastChange = "2026-01-21 03:32:14 +0000";
layers = (
{
anchors = (
{
name = bottom;
pos = (292,0);
},
{
name = top;
pos = (292,700);
}
);
layerId = m01;
shapes = (
{
closed = 1;
nodes = (
(177,0,l),
(177,700,l),
(90,700,l),
(90,0,l)
);
},
{
closed = 1;
nodes = (
(455,313,l),
(455,390,l),
(147,390,l),
(147,313,l)
);
},
{
closed = 1;
nodes = (
(533,624,l),
(533,700,l),
(147,700,l),
(147,624,l)
);
}
);
width = 583;
},
{
anchors = (
{
name = bottom;
pos = (317,0);
},
{
name = top;
pos = (317,700);
}
);
layerId = m002;
shapes = (
{
closed = 1;
nodes = (
(275,0,l),
(275,700,l),
(42,700,l),
(42,0,l)
);
},
{
closed = 1;
nodes = (
(500,254,l),
(500,429,l),
(172,429,l),
(172,254,l)
);
},
{
closed = 1;
nodes = (
(578,515,l),
(578,700,l),
(172,700,l),
(172,515,l)
);
}
);
width = 601;
}
);
unicode = 70;
},
{
glyphname = G;
kernLeft = C2;
kernRight = G;
lastChange = "2026-01-21 03:31:55 +0000";
layers = (
{
anchors = (
{
name = bottom;
pos = (361,0);
},
{
name = top;
pos = (361,700);
}
);
layerId = m01;
shapes = (
{
closed = 1;
nodes = (
(504,-16,o),
(605,100,o),
(605,270,cs),
(605,303,l),
(559,303,l),
(559,265,ls),
(559,144,o),
(472,62,o),
(359,62,cs),
(222,62,o),
(138,184,o),
(138,350,cs),
(138,526,o),
(233,638,o),
(369,638,cs),
(467,638,o),
(546,579,o),
(565,492,c),
(647,510,l),
(614,632,o),
(508,716,o),
(369,716,cs),
(187,716,o),
(50,572,o),
(50,350,cs),
(50,138,o),
(175,-16,o),
(349,-16,cs)
);
},
{
closed = 1;
nodes = (
(645,0,l),
(645,346,l),
(352,346,l),
(352,270,l),
(569,270,l),
(569,0,l)
);
}
);
width = 722;
},
{
anchors = (
{
name = bottom;
pos = (361,0);
},
{
name = top;
pos = (361,700);
}
);
layerId = m002;
shapes = (
{
closed = 1;
nodes = (
(477,-16,o),
(560,91,o),
(560,247,cs),
(560,296,l),
(502,296,l),
(502,263,ls),
(502,204,o),
(448,164,o),
(387,164,cs),
(300,164,o),
(252,245,o),
(252,350,cs),
(252,465,o),
(310,536,o),
(395,536,cs),
(458,536,o),
(510,496,o),
(522,437,c),
(719,514,l),
(669,634,o),
(547,716,o),
(393,716,cs),
(186,716,o),
(26,567,o),
(26,341,cs),
(26,133,o),
(161,-16,o),
(332,-16,cs)
);
},
{
closed = 1;
nodes = (
(705,0,l),
(705,391,l),
(352,391,l),
(352,236,l),
(529,236,l),
(529,0,l)
);
}
);
width = 744;
}
);
unicode = 71;
},
{
glyphname = H;
kernLeft = B2;
kernRight = H;
lastChange = "2026-01-19 16:01:03 +0000";
layers = (
{
anchors = (
{
name = bottom;
pos = (352,0);
},
{
name = center;
pos = (352,350);
},
{
name = top;
pos = (352,700);
},
{
name = topleft;
pos = (20,700);
}
);
layerId = m01;
shapes = (
{
closed = 1;
nodes = (
(613,0,l),
(613,700,l),
(526,700,l),
(526,0,l)
);
},
{
closed = 1;
nodes = (
(177,0,l),
(177,700,l),
(90,700,l),
(90,0,l)
);
},
{
closed = 1;
nodes = (
(564,324,l),
(564,400,l),
(147,400,l),
(147,324,l)
);
}
);
width = 703;
},
{
anchors = (
{
name = bottom;
pos = (370,0);
},
{
name = center;
pos = (370,350);
},
{
name = top;
pos = (370,700);
},
{
name = topleft;
pos = (38,700);
}
);
layerId = m002;
shapes = (
{
closed = 1;
nodes = (
(694,0,l),
(694,700,l),
(471,700,l),
(471,0,l)
);
},
{
closed = 1;
nodes = (
(268,0,l),
(268,700,l),
(45,700,l),
(45,0,l)
);
},
{
closed = 1;
nodes = (
(577,267,l),
(577,457,l),
(170,457,l),
(170,267,l)
);
}
);
width = 739;
}
);
unicode = 72;
},
{
glyphname = Hbar;
lastChange = "2026-01-19 15:34:25 +0000";
layers = (
{
layerId = m01;
shapes = (
{
ref = H;
},
{
closed = 1;
nodes = (
(7,520,l),
(696,520,l),
(696,585,l),
(7,585,l)
);
}
);
width = 703;
},
{
layerId = m002;
shapes = (
{
ref = H;
},
{
closed = 1;
nodes = (
(7,520,l),
(696,520,l),
(696,585,l),
(7,585,l)
);
}
);
width = 703;
}
);
unicode = 294;
},
{
glyphname = I;
kernLeft = B2;
kernRight = H;
lastChange = "2026-01-19 15:56:58 +0000";
layers = (
{
anchors = (
{
name = bottom;
pos = (134,0);
},
{
name = ogonek;
pos = (177,0);
},
{
name = top;
pos = (134,700);
},
{
name = topleft;
pos = (20,700);
}
);
layerId = m01;
shapes = (
{
closed = 1;
nodes = (
(177,0,l),
(177,700,l),
(90,700,l),
(90,0,l)
);
}
);
width = 267;
},
{
anchors = (
{
name = bottom;
pos = (157,0);
},
{
name = ogonek;
pos = (200,0);
},
{
name = top;
pos = (157,700);
},
{
name = topleft;
pos = (43,700);
}
);
layerId = m002;
shapes = (
{
closed = 1;
nodes = (
(268,0,l),
(268,700,l),
(45,700,l),
(45,0,l)
);
}
);
width = 313;
}
);
unicode = 73;
},
{
glyphname = J;
kernLeft = J2;
kernRight = J;
lastChange = "2026-01-21 14:27:28 +0000";
layers = (
{
anchors = (
{
name = bottom;
pos = (276,0);
},
{
name = top;
pos = (276,700);
}
);
layerId = m01;
shapes = (
{
closed = 1;
nodes = (
(387,-16,o),
(467,61,o),
(467,188,cs),
(467,700,l),
(380,700,l),
(380,188,ls),
(380,109,o),
(334,60,o),
(259,60,cs),
(184,60,o),
(137,109,o),
(137,188,cs),
(137,235,l),
(51,235,l),
(51,188,ls),
(51,61,o),
(130,-16,o),
(259,-16,cs)
);
}
);
width = 552;
},
{
anchors = (
{
name = bottom;
pos = (303,0);
},
{
name = top;
pos = (303,700);
}
);
layerId = m002;
shapes = (
{
closed = 1;
nodes = (
(461,-16,o),
(562,73,o),
(562,228,cs),
(562,700,l),
(339,700,l),
(339,228,ls),
(339,188,o),
(320,164,o),
(286,164,cs),
(249,164,o),
(228,188,o),
(228,228,cs),
(228,295,l),
(25,295,l),
(25,228,ls),
(25,73,o),
(120,-16,o),
(286,-16,cs)
);
}
);
width = 601;
}
);
unicode = 74;
},
{
glyphname = K;
kernLeft = B2;
kernRight = K;
lastChange = "2026-01-21 14:25:49 +0000";
layers = (
{
anchors = (
{
name = bottom;
pos = (313,0);
},
{
name = top;
pos = (313,700);
}
);
layerId = m01;
shapes = (
{
closed = 1;
nodes = (
(610,700,l),
(499,700,l),
(120,293,l),
(151,217,l)
);
},
{
closed = 1;
nodes = (
(177,0,l),
(177,700,l),
(90,700,l),
(90,0,l)
);
},
{
closed = 1;
nodes = (
(611,0,l),
(310,460,l),
(245,407,l),
(504,0,l)
);
}
);
width = 626;
},
{
anchors = (
{
name = bottom;
pos = (363,0);
},
{
name = top;
pos = (363,700);
}
);
layerId = m002;
shapes = (
{
closed = 1;
nodes = (
(720,700,l),
(439,700,l),
(91,254,l),
(259,178,l)
);
},
{
closed = 1;
nodes = (
(265,0,l),
(265,700,l),
(42,700,l),
(42,0,l)
);
},
{
closed = 1;
nodes = (
(721,0,l),
(470,472,l),
(270,390,l),
(464,0,l)
);
}
);
width = 724;
}
);
unicode = 75;
},
{
glyphname = L;
kernLeft = B2;
kernRight = L;
lastChange = "2026-01-19 19:31:07 +0000";
layers = (
{
anchors = (
{
name = bottom;
pos = (282,0);
},
{
name = center;
pos = (282,350);
},
{
name = top;
pos = (137,700);
},
{
name = topright;
pos = (252,700);
}
);
layerId = m01;
shapes = (
{
closed = 1;
nodes = (
(177,0,l),
(177,700,l),
(90,700,l),
(90,0,l)
);
},
{
closed = 1;
nodes = (
(533,0,l),
(533,76,l),
(147,76,l),
(147,0,l)
);
}
);
width = 563;
},
{
anchors = (
{
name = bottom;
pos = (302,0);
},
{
name = center;
pos = (302,350);
},
{
name = top;
pos = (157,700);
},
{
name = topright;
pos = (272,700);
}
);
layerId = m002;
shapes = (
{
closed = 1;
nodes = (
(265,0,l),
(265,700,l),
(42,700,l),
(42,0,l)
);
},
{
closed = 1;
nodes = (
(553,0,l),
(553,190,l),
(167,190,l),
(167,0,l)
);
}
);
width = 573;
}
);
unicode = 76;
},
{
glyphname = Lslash;
lastChange = "2026-01-19 15:34:25 +0000";
layers = (
{
layerId = m01;
shapes = (
{
ref = L;
},
{
closed = 1;
nodes = (
(286,409,l),
(286,490,l),
(8,350,l),
(8,269,l)
);
}
);
width = 563;
},
{
layerId = m002;
shapes = (
{
ref = L;
},
{
closed = 1;
nodes = (
(286,409,l),
(286,490,l),
(8,350,l),
(8,269,l)
);
}
);
width = 563;
}
);
unicode = 321;
},
{
glyphname = M;
kernLeft = B2;
kernRight = H;
lastChange = "2026-01-21 15:37:05 +0000";
layers = (
{
anchors = (
{
name = bottom;
pos = (426,0);
},
{
name = top;
pos = (426,700);
}
);
layerId = m01;
shapes = (
{
closed = 1;
nodes = (
(177,0,l),
(177,613,l),
(166,613,l),
(388,0,l),
(464,0,l),
(685,613,l),
(676,613,l),
(676,0,l),
(762,0,l),
(762,700,l),
(637,700,l),
(411,72,l),
(444,72,l),
(219,700,l),
(90,700,l),
(90,0,l)
);
}
);
width = 852;
},
{
anchors = (
{
name = bottom;
pos = (461,0);
},
{
name = top;
pos = (461,700);
}
);
layerId = m002;
shapes = (
{
closed = 1;
nodes = (
(255,0,l),
(255,603,l),
(201,603,l),
(383,0,l),
(539,0,l),
(720,603,l),
(668,603,l),
(668,0,l),
(881,0,l),
(881,700,l),
(564,700,l),
(397,180,l),
(522,180,l),
(356,700,l),
(42,700,l),
(42,0,l)
);
}
);
width = 923;
}
);
unicode = 77;
},
{
glyphname = N;
kernLeft = B2;
kernRight = H;
lastChange = "2026-01-21 15:37:52 +0000";
layers = (
{
anchors = (
{
name = bottom;
pos = (367,0);
},
{
name = top;
pos = (367,700);
}
);
layerId = m01;
shapes = (
{
closed = 1;
nodes = (
(177,0,l),
(177,602,l),
(163,598,l),
(540,0,l),
(643,0,l),
(643,700,l),
(557,700,l),
(557,98,l),
(571,102,l),
(193,700,l),
(90,700,l),
(90,0,l)
);
}
);
width = 734;
},
{
anchors = (
{
name = bottom;
pos = (369,0);
},
{
name = top;
pos = (369,700);
}
);
layerId = m002;
shapes = (
{
closed = 1;
nodes = (
(255,0,l),
(255,402,l),
(210,398,l),
(482,0,l),
(695,0,l),
(695,700,l),
(482,700,l),
(482,298,l),
(529,302,l),
(255,700,l),
(42,700,l),
(42,0,l)
);
}
);
width = 737;
}
);
unicode = 78;
},
{
glyphname = Eng;
lastChange = "2026-01-19 15:34:25 +0000";
layers = (
{
layerId = m01;
shapes = (
{
closed = 1;
nodes = (
(177,0,l),
(177,602,l),
(163,598,l),
(540,0,l),
(643,0,l),
(643,700,l),
(557,700,l),
(557,98,l),
(571,102,l),
(193,700,l),
(90,700,l),
(90,0,l)
);
},
{
closed = 1;
nodes = (
(595,-209,o),
(643,-162,o),
(643,-73,cs),
(643,53,l),
(557,53,l),
(557,-73,ls),
(557,-114,o),
(538,-137,o),
(498,-137,cs),
(442,-137,l),
(442,-205,l),
(462,-208,o),
(481,-209,o),
(508,-209,cs)
);
}
);
width = 733;
},
{
layerId = m002;
shapes = (
{
closed = 1;
nodes = (
(177,0,l),
(177,602,l),
(163,598,l),
(540,0,l),
(643,0,l),
(643,700,l),
(557,700,l),
(557,98,l),
(571,102,l),
(193,700,l),
(90,700,l),
(90,0,l)
);
},
{
closed = 1;
nodes = (
(595,-209,o),
(643,-162,o),
(643,-73,cs),
(643,53,l),
(557,53,l),
(557,-73,ls),
(557,-114,o),
(538,-137,o),
(498,-137,cs),
(442,-137,l),
(442,-205,l),
(462,-208,o),
(481,-209,o),
(508,-209,cs)
);
}
);
width = 733;
}
);
unicode = 330;
},
{
glyphname = O;
kernLeft = C2;
kernRight = D;
lastChange = "2026-01-19 15:56:42 +0000";
layers = (
{
anchors = (
{
name = bottom;
pos = (370,0);
},
{
name = center;
pos = (370,350);
},
{
name = ogonek;
pos = (495,10);
},
{
name = top;
pos = (370,700);
},
{
name = topleft;
pos = (20,700);
},
{
name = topright;
pos = (719,700);
}
);
layerId = m01;
shapes = (
{
closed = 1;
nodes = (
(559,-16,o),
(689,133,o),
(689,350,cs),
(689,567,o),
(559,716,o),
(369,716,cs),
(180,716,o),
(50,567,o),
(50,350,cs),
(50,133,o),
(180,-16,o),
(369,-16,cs)
);
},
{
closed = 1;
nodes = (
(233,62,o),
(138,179,o),
(138,350,cs),
(138,521,o),
(233,638,o),
(369,638,cs),
(506,638,o),
(601,521,o),
(601,350,cs),
(601,179,o),
(506,62,o),
(369,62,cs)
);
}
);
width = 739;
},
{
anchors = (
{
name = bottom;
pos = (392,0);
},
{
name = center;
pos = (392,350);
},
{
name = ogonek;
pos = (540,10);
},
{
name = top;
pos = (392,700);
},
{
name = topleft;
pos = (42,700);
},
{
name = topright;
pos = (741,700);
}
);
layerId = m002;
shapes = (
{
closed = 1;
nodes = (
(607,-16,o),
(756,133,o),
(756,350,cs),
(756,567,o),
(607,716,o),
(391,716,cs),
(175,716,o),
(26,567,o),
(26,350,cs),
(26,133,o),
(175,-16,o),
(391,-16,cs)
);
},
{
closed = 1;
nodes = (
(305,164,o),
(252,234,o),
(252,350,cs),
(252,466,o),
(305,536,o),
(391,536,cs),
(479,536,o),
(532,466,o),
(532,350,cs),
(532,234,o),
(479,164,o),
(391,164,cs)
);
}
);
width = 782;
}
);
unicode = 79;
},
{
glyphname = Oslash;
lastChange = "2026-01-19 15:34:25 +0000";
layers = (
{
layerId = m01;
shapes = (
{
closed = 1;
nodes = (
(559,-16,o),
(689,133,o),
(689,350,cs),
(689,567,o),
(559,716,o),
(369,716,cs),
(180,716,o),
(50,567,o),
(50,350,cs),
(50,133,o),
(180,-16,o),
(369,-16,cs)
);
},
{
closed = 1;
nodes = (
(233,62,o),
(138,179,o),
(138,350,cs),
(138,521,o),
(233,638,o),
(369,638,cs),
(506,638,o),
(601,521,o),
(601,350,cs),
(601,179,o),
(506,62,o),
(369,62,cs)
);
},
{
closed = 1;
nodes = (
(677,745,l),
(584,745,l),
(63,-45,l),
(156,-45,l)
);
}
);
width = 739;
},
{
layerId = m002;
shapes = (
{
closed = 1;
nodes = (
(559,-16,o),
(689,133,o),
(689,350,cs),
(689,567,o),
(559,716,o),
(369,716,cs),
(180,716,o),
(50,567,o),
(50,350,cs),
(50,133,o),
(180,-16,o),
(369,-16,cs)
);
},
{
closed = 1;
nodes = (
(233,62,o),
(138,179,o),
(138,350,cs),
(138,521,o),
(233,638,o),
(369,638,cs),
(506,638,o),
(601,521,o),
(601,350,cs),
(601,179,o),
(506,62,o),
(369,62,cs)
);
},
{
closed = 1;
nodes = (
(677,745,l),
(584,745,l),
(63,-45,l),
(156,-45,l)
);
}
);
width = 739;
}
);
unicode = 216;
},
{
glyphname = OE;
lastChange = "2026-01-21 14:23:08 +0000";
layers = (
{
layerId = m01;
shapes = (
{
closed = 1;
nodes = (
(541,-16,o),
(659,133,o),
(659,350,cs),
(659,567,o),
(541,716,o),
(369,716,cs),
(180,716,o),
(50,567,o),
(50,350,cs),
(50,133,o),
(180,-16,o),
(369,-16,cs)
);
},
{
closed = 1;
nodes = (
(233,62,o),
(138,179,o),
(138,350,cs),
(138,521,o),
(233,638,o),
(369,638,cs),
(506,638,o),
(601,521,o),
(601,350,cs),
(601,179,o),
(506,62,o),
(369,62,cs)
);
},
{
closed = 1;
nodes = (
(688,0,l),
(688,700,l),
(601,700,l),
(601,0,l)
);
},
{
closed = 1;
nodes = (
(1054,0,l),
(1054,76,l),
(658,76,l),
(658,0,l)
);
},
{
closed = 1;
nodes = (
(976,324,l),
(976,400,l),
(658,400,l),
(658,324,l)
);
},
{
closed = 1;
nodes = (
(1054,624,l),
(1054,700,l),
(658,700,l),
(658,624,l)
);
}
);
width = 1114;
},
{
layerId = m002;
shapes = (
{
closed = 1;
nodes = (
(517,-16,o),
(635,133,o),
(635,350,cs),
(635,567,o),
(517,716,o),
(345,716,cs),
(156,716,o),
(26,567,o),
(26,350,cs),
(26,133,o),
(156,-16,o),
(345,-16,cs)
);
},
{
closed = 1;
nodes = (
(209,62,o),
(114,179,o),
(114,350,cs),
(114,521,o),
(209,638,o),
(345,638,cs),
(482,638,o),
(577,521,o),
(577,350,cs),
(577,179,o),
(482,62,o),
(345,62,cs)
);
},
{
closed = 1;
nodes = (
(664,0,l),
(664,700,l),
(577,700,l),
(577,0,l)
);
},
{
closed = 1;
nodes = (
(1030,0,l),
(1030,76,l),
(634,76,l),
(634,0,l)
);
},
{
closed = 1;
nodes = (
(952,324,l),
(952,400,l),
(634,400,l),
(634,324,l)
);
},
{
closed = 1;
nodes = (
(1030,624,l),
(1030,700,l),
(634,700,l),
(634,624,l)
);
}
);
width = 1058;
}
);
metricLeft = O;
metricRight = E;
unicode = 338;
},
{
glyphname = P;
kernLeft = B2;
kernRight = P;
lastChange = "2026-01-20 13:04:26 +0000";
layers = (
{
anchors = (
{
name = bottom;
pos = (305,0);
},
{
name = top;
pos = (305,700);
}
);
layerId = m01;
shapes = (
{
closed = 1;
nodes = (
(354,284,ls),
(488,284,o),
(580,369,o),
(580,492,cs),
(580,615,o),
(488,700,o),
(354,700,cs),
(127,700,l),
(127,619,l),
(354,619,ls),
(436,619,o),
(492,567,o),
(492,492,cs),
(492,417,o),
(436,365,o),
(354,365,cs),
(127,365,l),
(127,284,l)
);
},
{
closed = 1;
nodes = (
(177,0,l),
(177,700,l),
(90,700,l),
(90,0,l)
);
}
);
width = 610;
},
{
anchors = (
{
name = bottom;
pos = (325,0);
},
{
name = top;
pos = (325,700);
}
);
layerId = m002;
shapes = (
{
closed = 1;
nodes = (
(374,215,ls),
(557,215,o),
(668,306,o),
(668,455,cs),
(668,607,o),
(557,700,o),
(374,700,cs),
(147,700,l),
(147,520,l),
(374,520,ls),
(419,520,o),
(445,497,o),
(445,455,cs),
(445,417,o),
(420,395,o),
(374,395,cs),
(147,395,l),
(147,215,l)
);
},
{
closed = 1;
nodes = (
(265,0,l),
(265,700,l),
(42,700,l),
(42,0,l)
);
}
);
width = 683;
}
);
unicode = 80;
},
{
glyphname = Thorn;
lastChange = "2026-01-21 14:23:08 +0000";
layers = (
{
layerId = m01;
shapes = (
{
closed = 1;
nodes = (
(354,142,ls),
(488,142,o),
(580,227,o),
(580,350,cs),
(580,473,o),
(488,558,o),
(354,558,cs),
(127,558,l),
(127,477,l),
(354,477,ls),
(437,477,o),
(494,425,o),
(494,350,cs),
(494,275,o),
(437,223,o),
(354,223,cs),
(127,223,l),
(127,142,l)
);
},
{
closed = 1;
nodes = (
(177,0,l),
(177,700,l),
(90,700,l),
(90,0,l)
);
}
);
width = 610;
},
{
layerId = m002;
shapes = (
{
closed = 1;
nodes = (
(306,142,ls),
(440,142,o),
(532,227,o),
(532,350,cs),
(532,473,o),
(440,558,o),
(306,558,cs),
(79,558,l),
(79,477,l),
(306,477,ls),
(389,477,o),
(446,425,o),
(446,350,cs),
(446,275,o),
(389,223,o),
(306,223,cs),
(79,223,l),
(79,142,l)
);
},
{
closed = 1;
nodes = (
(129,0,l),
(129,700,l),
(42,700,l),
(42,0,l)
);
}
);
width = 547;
}
);
metricLeft = P;
metricRight = P;
unicode = 222;
},
{
glyphname = Q;
kernLeft = C2;
kernRight = D;
lastChange = "2026-01-19 19:35:22 +0000";
layers = (
{
anchors = (
{
name = bottom;
pos = (370,0);
},
{
name = top;
pos = (370,700);
}
);
layerId = m01;
shapes = (
{
closed = 1;
nodes = (
(559,-16,o),
(689,133,o),
(689,350,cs),
(689,567,o),
(559,716,o),
(369,716,cs),
(180,716,o),
(50,567,o),
(50,350,cs),
(50,133,o),
(180,-16,o),
(369,-16,cs)
);
},
{
closed = 1;
nodes = (
(651,-68,l),
(397,267,l),
(296,267,l),
(551,-68,l)
);
},
{
closed = 1;
nodes = (
(233,62,o),
(138,179,o),
(138,350,cs),
(138,521,o),
(233,638,o),
(369,638,cs),
(506,638,o),
(601,521,o),
(601,350,cs),
(601,179,o),
(506,62,o),
(369,62,cs)
);
}
);
width = 739;
},
{
anchors = (
{
name = bottom;
pos = (370,0);
},
{
name = top;
pos = (370,700);
}
);
layerId = m002;
shapes = (
{
closed = 1;
nodes = (
(607,-16,o),
(756,133,o),
(756,350,cs),
(756,567,o),
(607,716,o),
(391,716,cs),
(175,716,o),
(26,567,o),
(26,350,cs),
(26,133,o),
(175,-16,o),
(391,-16,cs)
);
},
{
closed = 1;
nodes = (
(770,-68,l),
(492,326,l),
(294,326,l),
(573,-68,l)
);
},
{
closed = 1;
nodes = (
(305,164,o),
(252,234,o),
(252,350,cs),
(252,466,o),
(305,536,o),
(391,536,cs),
(479,536,o),
(532,466,o),
(532,350,cs),
(532,234,o),
(479,164,o),
(391,164,cs)
);
}
);
width = 782;
}
);
unicode = 81;
},
{
glyphname = R;
kernLeft = B2;
kernRight = R;
lastChange = "2026-01-20 13:04:30 +0000";
layers = (
{
anchors = (
{
name = bottom;
pos = (314,0);
},
{
name = top;
pos = (314,700);
}
);
layerId = m01;
shapes = (
{
closed = 1;
nodes = (
(354,284,ls),
(488,284,o),
(580,369,o),
(580,492,cs),
(580,615,o),
(488,700,o),
(354,700,cs),
(127,700,l),
(127,619,l),
(354,619,ls),
(436,619,o),
(492,567,o),
(492,492,cs),
(492,417,o),
(436,365,o),
(354,365,cs),
(127,365,l),
(127,284,l)
);
},
{
closed = 1;
nodes = (
(177,0,l),
(177,700,l),
(90,700,l),
(90,0,l)
);
},
{
closed = 1;
nodes = (
(583,0,l),
(363,327,l),
(260,327,l),
(480,0,l)
);
}
);
width = 628;
},
{
anchors = (
{
name = bottom;
pos = (364,0);
},
{
name = top;
pos = (364,700);
}
);
layerId = m002;
shapes = (
{
closed = 1;
nodes = (
(404,234,ls),
(555,234,o),
(658,329,o),
(658,467,cs),
(658,605,o),
(555,700,o),
(404,700,cs),
(137,700,l),
(137,519,l),
(374,519,ls),
(411,519,o),
(435,496,o),
(435,458,cs),
(435,421,o),
(411,395,o),
(374,395,cs),
(137,395,l),
(137,234,l)
);
},
{
closed = 1;
nodes = (
(265,0,l),
(265,700,l),
(42,700,l),
(42,0,l)
);
},
{
closed = 1;
nodes = (
(684,0,l),
(488,327,l),
(260,327,l),
(436,0,l)
);
}
);
width = 694;
}
);
unicode = 82;
},
{
glyphname = S;
kernLeft = S2;
kernRight = S;
lastChange = "2026-01-20 13:04:07 +0000";
layers = (
{
anchors = (
{
name = bottom;
pos = (303,0);
},
{
name = top;
pos = (303,700);
}
);
layerId = m01;
shapes = (
{
closed = 1;
nodes = (
(461,-13,o),
(553,79,o),
(553,191,cs),
(553,287,o),
(485,349,o),
(379,378,cs),
(253,412,ls),
(194,428,o),
(155,468,o),
(155,521,cs),
(155,590,o),
(221,638,o),
(303,638,cs),
(386,638,o),
(457,590,o),
(503,517,c),
(446,527,l),
(587,646,l),
(577,557,l),
(527,653,o),
(422,715,o),
(304,715,cs),
(163,715,o),
(68,627,o),
(68,515,cs),
(68,423,o),
(132,360,o),
(232,332,cs),
(349,299,ls),
(420,280,o),
(466,246,o),
(466,188,cs),
(466,123,o),
(410,64,o),
(318,64,cs),
(227,64,o),
(139,123,o),
(98,215,c),
(150,194,l),
(-2,84,l),
(23,180,l),
(68,63,o),
(184,-13,o),
(316,-13,cs)
);
}
);
width = 605;
},
{
anchors = (
{
name = bottom;
pos = (328,0);
},
{
name = top;
pos = (328,700);
}
);
layerId = m002;
shapes = (
{
closed = 1;
nodes = (
(524,-13,o),
(627,98,o),
(627,229,cs),
(627,342,o),
(544,410,o),
(416,441,cs),
(311,466,ls),
(287,472,o),
(272,486,o),
(272,502,cs),
(272,525,o),
(295,540,o),
(338,540,cs),
(412,540,o),
(483,496,o),
(511,429,c),
(446,439,l),
(632,656,l),
(628,599,l),
(574,669,o),
(454,715,o),
(331,715,cs),
(157,715,o),
(49,603,o),
(49,479,cs),
(49,371,o),
(127,311,o),
(249,279,cs),
(362,250,ls),
(388,243,o),
(405,229,o),
(405,211,cs),
(405,186,o),
(389,167,o),
(336,167,cs),
(248,167,o),
(149,218,o),
(112,296,c),
(183,296,l),
(-7,84,l),
(-7,142,l),
(47,48,o),
(193,-13,o),
(334,-13,cs)
);
}
);
width = 643;
}
);
unicode = 83;
},
{
glyphname = Germandbls;
lastChange = "2026-01-21 14:23:08 +0000";
layers = (
{
layerId = m01;
shapes = (
{
closed = 1;
nodes = (
(470,0,ls),
(592,0,o),
(676,81,o),
(676,198,cs),
(676,315,o),
(592,396,o),
(470,396,cs),
(366,396,l),
(381,363,l),
(617,624,l),
(617,700,l),
(290,700,ls),
(160,700,o),
(90,630,o),
(90,500,cs),
(90,0,l),
(177,0,l),
(177,505,ls),
(177,582,o),
(219,624,o),
(296,624,cs),
(554,624,l),
(539,657,l),
(303,396,l),
(303,315,l),
(470,315,ls),
(540,315,o),
(588,267,o),
(588,198,cs),
(588,129,o),
(540,81,o),
(470,81,cs),
(303,81,l),
(303,0,l)
);
}
);
width = 728;
},
{
layerId = m002;
shapes = (
{
closed = 1;
nodes = (
(422,0,ls),
(544,0,o),
(628,81,o),
(628,198,cs),
(628,315,o),
(544,396,o),
(422,396,cs),
(318,396,l),
(333,363,l),
(569,624,l),
(569,700,l),
(242,700,ls),
(112,700,o),
(42,630,o),
(42,500,cs),
(42,0,l),
(129,0,l),
(129,505,ls),
(129,582,o),
(171,624,o),
(248,624,cs),
(506,624,l),
(491,657,l),
(255,396,l),
(255,315,l),
(422,315,ls),
(492,315,o),
(540,267,o),
(540,198,cs),
(540,129,o),
(492,81,o),
(422,81,cs),
(255,81,l),
(255,0,l)
);
}
);
width = 644;
}
);
metricLeft = B;
metricRight = S;
unicode = 7838;
},
{
glyphname = T;
kernLeft = T2;
kernRight = T;
lastChange = "2026-01-19 19:31:29 +0000";
layers = (
{
anchors = (
{
name = bottom;
pos = (285,0);
},
{
name = center;
pos = (285,350);
},
{
name = top;
pos = (285,700);
}
);
layerId = m01;
shapes = (
{
closed = 1;
nodes = (
(329,0,l),
(329,700,l),
(242,700,l),
(242,0,l)
);
},
{
closed = 1;
nodes = (
(545,624,l),
(545,700,l),
(25,700,l),
(25,624,l)
);
}
);
width = 570;
},
{
anchors = (
{
name = bottom;
pos = (300,0);
},
{
name = center;
pos = (300,350);
},
{
name = top;
pos = (300,700);
}
);
layerId = m002;
shapes = (
{
closed = 1;
nodes = (
(412,0,l),
(412,700,l),
(189,700,l),
(189,0,l)
);
},
{
closed = 1;
nodes = (
(590,510,l),
(590,700,l),
(10,700,l),
(10,510,l)
);
}
);
width = 600;
}
);
unicode = 84;
},
{
glyphname = U;
kernLeft = U;
kernRight = J;
lastChange = "2026-01-21 14:16:43 +0000";
layers = (
{
anchors = (
{
name = bottom;
pos = (344,0);
},
{
name = ogonek;
pos = (466,10);
},
{
name = top;
pos = (344,700);
},
{
name = topright;
pos = (668,700);
}
);
layerId = m01;
shapes = (
{
closed = 1;
nodes = (
(497,-16,o),
(603,87,o),
(603,239,cs),
(603,700,l),
(517,700,l),
(517,239,ls),
(517,133,o),
(445,62,o),
(344,62,cs),
(243,62,o),
(172,133,o),
(172,239,cs),
(172,700,l),
(85,700,l),
(85,239,ls),
(85,87,o),
(191,-16,o),
(344,-16,cs)
);
}
);
width = 688;
},
{
anchors = (
{
name = bottom;
pos = (356,0);
},
{
name = ogonek;
pos = (478,10);
},
{
name = top;
pos = (356,700);
},
{
name = topright;
pos = (680,700);
}
);
layerId = m002;
shapes = (
{
closed = 1;
nodes = (
(558,-16,o),
(674,88,o),
(674,269,cs),
(674,700,l),
(451,700,l),
(451,269,ls),
(451,202,o),
(416,164,o),
(356,164,cs),
(296,164,o),
(262,202,o),
(262,269,cs),
(262,700,l),
(39,700,l),
(39,269,ls),
(39,88,o),
(154,-16,o),
(356,-16,cs)
);
}
);
width = 713;
}
);
unicode = 85;
},
{
glyphname = V;
kernLeft = V2;
kernRight = V;
lastChange = "2026-01-21 14:24:24 +0000";
layers = (
{
anchors = (
{
name = bottom;
pos = (329,0);
},
{
name = top;
pos = (329,700);
}
);
layerId = m01;
shapes = (
{
closed = 1;
nodes = (
(372,0,l),
(633,700,l),
(539,700,l),
(319,95,l),
(339,95,l),
(118,700,l),
(25,700,l),
(286,0,l)
);
}
);
width = 658;
},
{
anchors = (
{
name = bottom;
pos = (351,0);
},
{
name = top;
pos = (351,700);
}
);
layerId = m002;
shapes = (
{
closed = 1;
nodes = (
(469,0,l),
(710,700,l),
(471,700,l),
(301,95,l),
(406,95,l),
(235,700,l),
(-3,700,l),
(238,0,l)
);
}
);
width = 707;
}
);
unicode = 86;
},
{
glyphname = W;
kernLeft = W2;
kernRight = W;
lastChange = "2026-01-21 14:27:03 +0000";
layers = (
{
anchors = (
{
name = bottom;
pos = (470,0);
},
{
name = top;
pos = (470,700);
}
);
layerId = m01;
shapes = (
{
closed = 1;
nodes = (
(320,0,l),
(477,579,l),
(463,579,l),
(620,0,l),
(710,0,l),
(914,700,l),
(820,700,l),
(658,99,l),
(672,99,l),
(513,700,l),
(427,700,l),
(267,99,l),
(282,99,l),
(119.002,700,l),
(25,700,l),
(229,0,l)
);
}
);
width = 940;
},
{
anchors = (
{
name = bottom;
pos = (494,0);
},
{
name = top;
pos = (494,700);
}
);
layerId = m002;
shapes = (
{
closed = 1;
nodes = (
(409,0,l),
(556,579,l),
(432,579,l),
(579,0,l),
(794,0,l),
(988,700,l),
(754,700,l),
(602,99,l),
(741,99,l),
(592,700,l),
(396,700,l),
(246,99,l),
(386,99,l),
(233,700,l),
(-1,700,l),
(193,0,l)
);
}
);
width = 987;
}
);
unicode = 87;
},
{
glyphname = X;
kernLeft = X2;
kernRight = X;
lastChange = "2026-01-21 15:37:38 +0000";
layers = (
{
anchors = (
{
name = bottom;
pos = (309,0);
},
{
name = top;
pos = (309,700);
}
);
layerId = m01;
shapes = (
{
closed = 1;
nodes = (
(592,0,l),
(346,375,l),
(330,399,l),
(132,700,l),
(31,700,l),
(276,328,l),
(291,304,l),
(491,0,l)
);
},
{
closed = 1;
nodes = (
(123,0,l),
(326,307,l),
(271,375,l),
(25,0,l)
);
},
{
closed = 1;
nodes = (
(593,700,l),
(495,700,l),
(287,384,l),
(342,316,l)
);
}
);
width = 618;
},
{
anchors = (
{
name = bottom;
pos = (350,0);
},
{
name = top;
pos = (350,700);
}
);
layerId = m002;
shapes = (
{
closed = 1;
nodes = (
(705,0,l),
(466,382,l),
(431,393,l),
(267,700,l),
(5,700,l),
(239,326,l),
(275,313,l),
(443,0,l)
);
},
{
closed = 1;
nodes = (
(259,0,l),
(423,307,l),
(233,375,l),
(-1,0,l)
);
},
{
closed = 1;
nodes = (
(706,700,l),
(446,700,l),
(277,384,l),
(467,316,l)
);
}
);
width = 705;
}
);
unicode = 88;
},
{
glyphname = Y;
kernLeft = Y2;
kernRight = Y;
lastChange = "2026-01-21 14:29:34 +0000";
layers = (
{
anchors = (
{
name = bottom;
pos = (298,0);
},
{
name = top;
pos = (298,700);
},
{
name = topleft;
pos = (20,700);
}
);
layerId = m01;
shapes = (
{
closed = 1;
nodes = (
(307,203,l),
(580,700,l),
(487,700,l),
(286,318,l),
(310,318,l),
(108,700,l),
(15,700,l),
(289,203,l)
);
},
{
closed = 1;
nodes = (
(341,0,l),
(341,292,l),
(255,292,l),
(255,0,l)
);
}
);
width = 595;
},
{
anchors = (
{
name = bottom;
pos = (353,0);
},
{
name = top;
pos = (353,700);
},
{
name = topleft;
pos = (75,700);
}
);
layerId = m002;
shapes = (
{
closed = 1;
nodes = (
(430,182,l),
(713,700,l),
(460,700,l),
(279,297,l),
(433,297,l),
(251,700,l),
(-2,700,l),
(282,182,l)
);
},
{
closed = 1;
nodes = (
(465,0,l),
(465,271,l),
(242,271,l),
(242,0,l)
);
}
);
width = 711;
}
);
unicode = 89;
},
{
glyphname = Z;
kernLeft = Z2;
kernRight = Z;
lastChange = "2026-01-21 14:30:10 +0000";
layers = (
{
anchors = (
{
name = bottom;
pos = (282,0);
},
{
name = center;
pos = (282,350);
},
{
name = top;
pos = (282,700);
}
);
layerId = m01;
shapes = (
{
closed = 1;
nodes = (
(519,0,l),
(519,76,l),
(98,76,l),
(118,39,l),
(519,624,l),
(519,700,l),
(45,700,l),
(45,624,l),
(466,624,l),
(446,661,l),
(45,76,l),
(45,0,l)
);
}
);
width = 564;
},
{
anchors = (
{
name = bottom;
pos = (295,0);
},
{
name = center;
pos = (295,350);
},
{
name = top;
pos = (295,700);
}
);
layerId = m002;
shapes = (
{
closed = 1;
nodes = (
(582,0,l),
(582,180,l),
(61,180,l),
(211,92,l),
(582,520,l),
(582,700,l),
(8,700,l),
(8,520,l),
(399,520,l),
(379,608,l),
(8,180,l),
(8,0,l)
);
}
);
width = 590;
}
);
unicode = 90;
},
{
glyphname = a;
kernLeft = a2;
kernRight = a;
lastChange = "2026-01-20 20:42:22 +0000";
layers = (
{
anchors = (
{
name = bottom;
pos = (260,0);
},
{
name = ogonek;
pos = (456,0);
},
{
name = top;
pos = (260,500);
}
);
layerId = m01;
shapes = (
{
closed = 1;
nodes = (
(456,0,l),
(447,83,l),
(447,356,ls),
(447,451,o),
(369,516,o),
(254,516,cs),
(140,516,o),
(60,453,o),
(60,361,c),
(145,361,l),
(145,413,o),
(191,448,o),
(255,448,cs),
(321,448,o),
(364,411,o),
(364,358,cs),
(364,83,l),
(374,0,l)
);
},
{
closed = 1;
nodes = (
(324,-14,o),
(396,67,o),
(396,184,c),
(364,184,l),
(364,106,o),
(307,53,o),
(230,53,cs),
(169,53,o),
(130,88,o),
(130,133,cs),
(130,174,o),
(163,207,o),
(212,216,cs),
(398,252,l),
(398,317,l),
(195,282,ls),
(106,267,o),
(45,208,o),
(45,131,cs),
(45,47,o),
(116,-14,o),
(213,-14,cs)
);
}
);
width = 519;
},
{
anchors = (
{
name = bottom;
pos = (289,0);
},
{
name = ogonek;
pos = (491,0);
},
{
name = top;
pos = (289,515);
}
);
layerId = m002;
shapes = (
{
closed = 1;
nodes = (
(546,0,l),
(539,85,l),
(539,347,ls),
(539,456,o),
(441,531,o),
(293,531,cs),
(145,531,o),
(40,457,o),
(40,349,c),
(233,349,l),
(233,376,o),
(257,394,o),
(289,394,cs),
(321,394,o),
(341,374,o),
(341,346,cs),
(341,85,l),
(354,0,l)
);
},
{
closed = 1;
nodes = (
(305,-14,o),
(389,71,o),
(389,195,c),
(341,195,l),
(341,152,o),
(313,122,o),
(271,122,cs),
(241,122,o),
(218,138,o),
(218,160,cs),
(218,180,o),
(236,196,o),
(262,201,cs),
(424,235,l),
(424,339,l),
(193,309,ls),
(90,296,o),
(20,235,o),
(20,145,cs),
(20,57,o),
(87,-14,o),
(191,-14,cs)
);
}
);
width = 570;
}
);
unicode = 97;
},
{
glyphname = ae;
lastChange = "2026-01-21 14:23:08 +0000";
layers = (
{
layerId = m01;
shapes = (
{
closed = 1;
nodes = (
(427,153,l),
(427,356,ls),
(427,451,o),
(364,516,o),
(254,516,cs),
(146,516,o),
(60,453,o),
(60,361,c),
(145,361,l),
(145,413,o),
(191,448,o),
(255,448,cs),
(321,448,o),
(364,411,o),
(364,358,cs),
(364,153,l)
);
},
{
closed = 1;
nodes = (
(339,-14,o),
(426,67,o),
(426,184,c),
(364,184,l),
(364,106,o),
(306,53,o),
(230,53,cs),
(168,53,o),
(130,88,o),
(130,133,cs),
(130,175,o),
(163,207,o),
(212,216,cs),
(398,252,l),
(398,317,l),
(195,282,ls),
(106,267,o),
(45,209,o),
(45,131,cs),
(45,48,o),
(113,-14,o),
(218,-14,cs)
);
},
{
closed = 1;
nodes = (
(697,-16,o),
(783,39,o),
(806,120,c),
(725,141,l),
(705,92,o),
(660,58,o),
(601,58,cs),
(514,58,o),
(445,130,o),
(445,250,cs),
(445,360,o),
(502,445,o),
(592,445,cs),
(670,445,o),
(728,381,o),
(728,288,c),
(750,298,l),
(422,298,l),
(422,233,l),
(818,233,l),
(818,250,ls),
(818,408,o),
(722,516,o),
(592,516,cs),
(461,516,o),
(378,406,o),
(378,250,cs),
(378,90,o),
(466,-16,o),
(600,-16,cs)
);
}
);
width = 868;
},
{
layerId = m002;
shapes = (
{
closed = 1;
nodes = (
(402,153,l),
(402,356,ls),
(402,451,o),
(339,516,o),
(229,516,cs),
(121,516,o),
(35,453,o),
(35,361,c),
(120,361,l),
(120,413,o),
(166,448,o),
(230,448,cs),
(296,448,o),
(339,411,o),
(339,358,cs),
(339,153,l)
);
},
{
closed = 1;
nodes = (
(314,-14,o),
(401,67,o),
(401,184,c),
(339,184,l),
(339,106,o),
(281,53,o),
(205,53,cs),
(143,53,o),
(105,88,o),
(105,133,cs),
(105,175,o),
(138,207,o),
(187,216,cs),
(373,252,l),
(373,317,l),
(170,282,ls),
(81,267,o),
(20,209,o),
(20,131,cs),
(20,48,o),
(88,-14,o),
(193,-14,cs)
);
},
{
closed = 1;
nodes = (
(672,-16,o),
(758,39,o),
(781,120,c),
(700,141,l),
(680,92,o),
(635,58,o),
(576,58,cs),
(489,58,o),
(420,130,o),
(420,250,cs),
(420,360,o),
(477,445,o),
(567,445,cs),
(645,445,o),
(703,381,o),
(703,288,c),
(725,298,l),
(397,298,l),
(397,233,l),
(793,233,l),
(793,250,ls),
(793,408,o),
(697,516,o),
(567,516,cs),
(436,516,o),
(353,406,o),
(353,250,cs),
(353,90,o),
(441,-16,o),
(575,-16,cs)
);
}
);
width = 813;
}
);
metricLeft = a;
metricRight = e;
unicode = 230;
},
{
glyphname = b;
kernLeft = B2;
kernRight = b;
lastChange = "2026-01-19 16:02:40 +0000";
layers = (
{
anchors = (
{
name = bottom;
pos = (305,0);
},
{
name = center;
pos = (305,250);
},
{
name = top;
pos = (305,500);
}
);
layerId = m01;
shapes = (
{
closed = 1;
nodes = (
(474,-16,o),
(560,89,o),
(560,250,cs),
(560,411,o),
(474,516,o),
(342,516,cs),
(211,516,o),
(127,411,o),
(127,250,cs),
(127,89,o),
(211,-16,o),
(342,-16,cs)
);
},
{
closed = 1;
nodes = (
(168,0,l),
(168,170,l),
(168,183,l),
(168,700,l),
(85,700,l),
(85,0,l)
);
},
{
closed = 1;
nodes = (
(228,57,o),
(168,133,o),
(168,250,cs),
(168,367,o),
(228,442,o),
(321,442,cs),
(414,442,o),
(474,367,o),
(474,250,cs),
(474,133,o),
(414,57,o),
(321,57,cs)
);
}
);
width = 610;
},
{
anchors = (
{
name = bottom;
pos = (314,0);
},
{
name = center;
pos = (314,258);
},
{
name = top;
pos = (314,515);
}
);
layerId = m002;
shapes = (
{
closed = 1;
nodes = (
(518,-16,o),
(603,92,o),
(603,258,cs),
(603,424,o),
(518,531,o),
(387,531,cs),
(265,531,o),
(186,424,o),
(186,258,cs),
(186,92,o),
(265,-16,o),
(387,-16,cs)
);
},
{
closed = 1;
nodes = (
(238,0,l),
(238,175,l),
(248,188,l),
(248,700,l),
(42,700,l),
(42,0,l)
);
},
{
closed = 1;
nodes = (
(274,139,o),
(248,181,o),
(248,258,cs),
(248,335,o),
(274,376,o),
(322,376,cs),
(373,376,o),
(400,335,o),
(400,258,cs),
(400,181,o),
(373,139,o),
(322,139,cs)
);
}
);
width = 623;
}
);
unicode = 98;
},
{
glyphname = c;
kernLeft = c;
kernRight = b;
lastChange = "2026-01-19 19:28:05 +0000";
layers = (
{
anchors = (
{
name = bottom;
pos = (282,0);
},
{
name = top;
pos = (282,500);
}
);
layerId = m01;
shapes = (
{
closed = 1;
nodes = (
(381,-16,o),
(464,44,o),
(493,136,c),
(415,159,l),
(398,98,o),
(346,58,o),
(282,58,cs),
(193,58,o),
(135,133,o),
(135,250,cs),
(135,367,o),
(193,442,o),
(282,442,cs),
(346,442,o),
(398,402,o),
(415,341,c),
(493,364,l),
(463,456,o),
(380,516,o),
(282,516,cs),
(141,516,o),
(50,411,o),
(50,250,cs),
(50,89,o),
(141,-16,o),
(282,-16,cs)
);
}
);
width = 538;
},
{
anchors = (
{
name = bottom;
pos = (307,0);
},
{
name = top;
pos = (307,515);
}
);
layerId = m002;
shapes = (
{
closed = 1;
nodes = (
(433,-17,o),
(521,47,o),
(559,147,c),
(389,212,l),
(380,166,o),
(350,139,o),
(309,139,cs),
(257,139,o),
(227,182,o),
(227,257,cs),
(227,332,o),
(257,376,o),
(309,376,cs),
(350,376,o),
(380,349,o),
(389,303,c),
(559,368,l),
(521,468,o),
(433,532,o),
(307,532,cs),
(144,532,o),
(21,424,o),
(21,257,cs),
(21,91,o),
(144,-17,o),
(307,-17,cs)
);
}
);
width = 577;
}
);
unicode = 99;
},
{
glyphname = d;
kernLeft = c;
kernRight = H;
lastChange = "2026-01-19 16:03:23 +0000";
layers = (
{
anchors = (
{
name = bottom;
pos = (305,0);
},
{
name = center;
pos = (305,250);
},
{
name = top;
pos = (305,800);
},
{
name = topright;
pos = (562,700);
}
);
layerId = m01;
shapes = (
{
closed = 1;
nodes = (
(399,-16,o),
(483,89,o),
(483,250,cs),
(483,411,o),
(399,516,o),
(268,516,cs),
(136,516,o),
(50,411,o),
(50,250,cs),
(50,89,o),
(136,-16,o),
(268,-16,cs)
);
},
{
closed = 1;
nodes = (
(195,55,o),
(134,132,o),
(134,250,cs),
(134,368,o),
(195,444,o),
(289,444,cs),
(382,444,o),
(442,368,o),
(442,250,cs),
(442,132,o),
(382,55,o),
(289,55,cs)
);
},
{
closed = 1;
nodes = (
(525,0,l),
(525,700,l),
(442,700,l),
(442,183,l),
(442,170,l),
(442,0,l)
);
}
);
width = 610;
},
{
anchors = (
{
name = bottom;
pos = (309,0);
},
{
name = center;
pos = (309,258);
},
{
name = top;
pos = (309,824);
},
{
name = topright;
pos = (581,700);
}
);
layerId = m002;
shapes = (
{
closed = 1;
nodes = (
(358,-16,o),
(437,92,o),
(437,258,cs),
(437,424,o),
(358,531,o),
(236,531,cs),
(105,531,o),
(20,424,o),
(20,258,cs),
(20,92,o),
(105,-16,o),
(236,-16,cs)
);
},
{
closed = 1;
nodes = (
(250,139,o),
(223,181,o),
(223,258,cs),
(223,335,o),
(250,376,o),
(301,376,cs),
(349,376,o),
(375,335,o),
(375,258,cs),
(375,181,o),
(349,139,o),
(301,139,cs)
);
},
{
closed = 1;
nodes = (
(581,0,l),
(581,700,l),
(375,700,l),
(375,188,l),
(385,175,l),
(385,0,l)
);
}
);
width = 623;
}
);
unicode = 100;
},
{
glyphname = eth;
lastChange = "2026-01-19 15:34:25 +0000";
layers = (
{
layerId = m01;
shapes = (
{
closed = 1;
nodes = (
(450,-16,o),
(547,91,o),
(547,277,cs),
(547,490,o),
(419,670,o),
(221,716,c),
(184,653,l),
(354,606,o),
(464,487,o),
(464,350,cs),
(464,299,l),
(500,297,l),
(473,409,o),
(399,482,o),
(288,482,cs),
(159,482,o),
(60,385,o),
(60,232,cs),
(60,82,o),
(154,-16,o),
(299,-16,cs)
);
},
{
closed = 1;
nodes = (
(199,62,o),
(145,132,o),
(145,234,cs),
(145,339,o),
(204,404,o),
(298,404,cs),
(395,404,o),
(460,336,o),
(460,234,cs),
(460,129,o),
(391,62,o),
(296,62,cs)
);
},
{
closed = 1;
nodes = (
(232,511,l),
(525,603,l),
(508,665,l),
(215,573,l)
);
}
);
width = 600;
},
{
layerId = m002;
shapes = (
{
closed = 1;
nodes = (
(450,-16,o),
(547,91,o),
(547,277,cs),
(547,490,o),
(419,670,o),
(221,716,c),
(184,653,l),
(354,606,o),
(464,487,o),
(464,350,cs),
(464,299,l),
(500,297,l),
(473,409,o),
(399,482,o),
(288,482,cs),
(159,482,o),
(60,385,o),
(60,232,cs),
(60,82,o),
(154,-16,o),
(299,-16,cs)
);
},
{
closed = 1;
nodes = (
(199,62,o),
(145,132,o),
(145,234,cs),
(145,339,o),
(204,404,o),
(298,404,cs),
(395,404,o),
(460,336,o),
(460,234,cs),
(460,129,o),
(391,62,o),
(296,62,cs)
);
},
{
closed = 1;
nodes = (
(232,511,l),
(525,603,l),
(508,665,l),
(215,573,l)
);
}
);
width = 600;
}
);
unicode = 240;
},
{
glyphname = dcaron;
lastChange = "2026-01-19 15:34:25 +0000";
layers = (
{
layerId = m01;
shapes = (
{
ref = d;
},
{
pos = (563,0);
ref = caroncomb.alt;
},
{
closed = 1;
nodes = (
(282,586,l),
(589,586,l),
(589,650,l),
(282,650,l)
);
}
);
width = 610;
},
{
layerId = m002;
shapes = (
{
ref = d;
},
{
pos = (563,0);
ref = caroncomb.alt;
},
{
closed = 1;
nodes = (
(282,586,l),
(589,586,l),
(589,650,l),
(282,650,l)
);
}
);
width = 610;
}
);
unicode = 271;
},
{
glyphname = e;
kernLeft = c;
kernRight = b;
lastChange = "2026-01-20 17:44:05 +0000";
layers = (
{
anchors = (
{
name = bottom;
pos = (280,0);
},
{
name = ogonek;
pos = (399,7);
},
{
name = top;
pos = (280,500);
}
);
layerId = m01;
shapes = (
{
closed = 1;
nodes = (
(395,-16,o),
(474,37,o),
(498,120,c),
(417,141,l),
(397,91,o),
(354,58,o),
(293,58,cs),
(204,58,o),
(137,127,o),
(137,250,cs),
(137,362,o),
(192,445,o),
(284,445,cs),
(363,445,o),
(420,383,o),
(420,288,c),
(442,298,l),
(114,298,l),
(114,233,l),
(510,233,l),
(510,250,ls),
(510,411,o),
(423,516,o),
(284,516,cs),
(144,516,o),
(50,410,o),
(50,250,cs),
(50,88,o),
(147,-16,o),
(292,-16,cs)
);
}
);
width = 560;
},
{
anchors = (
{
name = bottom;
pos = (284,0);
},
{
name = ogonek;
pos = (407,7);
},
{
name = top;
pos = (284,515);
}
);
layerId = m002;
shapes = (
{
closed = 1;
nodes = (
(411,-16,o),
(501,30,o),
(554,100,c),
(415,199,l),
(399,166,o),
(363,144,o),
(323,144,cs),
(262,144,o),
(222,196,o),
(222,278,cs),
(222,354,o),
(249,395,o),
(297,395,cs),
(340,395,o),
(363,365,o),
(363,307,c),
(409,335,l),
(90,335,l),
(90,224,l),
(564,224,l),
(564,258,ls),
(564,424,o),
(454,532,o),
(289,532,cs),
(125,532,o),
(21,418,o),
(21,258,cs),
(21,86,o),
(140,-16,o),
(301,-16,cs)
);
}
);
width = 584;
}
);
unicode = 101;
},
{
glyphname = f;
kernLeft = f2;
kernRight = f;
lastChange = "2026-01-21 03:18:58 +0000";
layers = (
{
anchors = (
{
name = bottom;
pos = (168,0);
},
{
name = top;
pos = (168,800);
}
);
layerId = m01;
shapes = (
{
closed = 1;
nodes = (
(193,0,l),
(193,574,ls),
(193,615,o),
(214,639,o),
(254,639,cs),
(320,639,l),
(320,705,l),
(297,709,o),
(276,710,o),
(245,710,cs),
(157,710,o),
(110,663,o),
(110,574,cs),
(110,0,l)
);
},
{
closed = 1;
nodes = (
(320,428,l),
(320,500,l),
(25,500,l),
(25,428,l)
);
}
);
width = 335;
},
{
anchors = (
{
name = bottom;
pos = (193,0);
},
{
name = top;
pos = (193,824);
}
);
layerId = m002;
shapes = (
{
closed = 1;
nodes = (
(298,0,l),
(298,531,ls),
(298,554,o),
(315,568,o),
(342,568,cs),
(399,568,l),
(399,699,l),
(382,708,o),
(332,714,o),
(282,714,cs),
(159,714,o),
(92,649,o),
(92,541,cs),
(92,0,l)
);
},
{
closed = 1;
nodes = (
(400,361,l),
(400,515,l),
(16,515,l),
(16,361,l)
);
}
);
width = 415;
}
);
unicode = 102;
},
{
glyphname = g;
kernLeft = c;
kernRight = g;
lastChange = "2026-01-21 03:23:40 +0000";
layers = (
{
anchors = (
{
name = bottom;
pos = (299,-200);
},
{
name = top;
pos = (299,500);
}
);
layerId = m01;
shapes = (
{
closed = 1;
nodes = (
(436,-216,o),
(521,-129,o),
(521,5,cs),
(521,500,l),
(438,500,l),
(438,392,l),
(435,379,l),
(435,13,ls),
(435,-82,o),
(386,-143,o),
(291,-143,cs),
(223,-143,o),
(158,-112,o),
(147,-63,c),
(64,-63,l),
(76,-156,o),
(170,-216,o),
(291,-216,cs)
);
},
{
closed = 1;
nodes = (
(397,14,o),
(476,113,o),
(476,265,cs),
(476,417,o),
(397,516,o),
(267,516,cs),
(138,516,o),
(50,417,o),
(50,265,cs),
(50,113,o),
(138,14,o),
(267,14,cs)
);
},
{
closed = 1;
nodes = (
(196,89,o),
(135,158,o),
(135,265,cs),
(135,372,o),
(196,443,o),
(286,443,cs),
(377,443,o),
(435,372,o),
(435,265,cs),
(435,158,o),
(377,89,o),
(286,89,cs)
);
}
);
width = 601;
},
{
anchors = (
{
name = bottom;
pos = (288,-206);
},
{
name = top;
pos = (288,515);
}
);
layerId = m002;
shapes = (
{
closed = 1;
nodes = (
(469,-216,o),
(576,-129,o),
(576,5,cs),
(576,515,l),
(386,515,l),
(386,404,l),
(370,390,l),
(370,-7,ls),
(370,-48,o),
(340,-74,o),
(301,-74,cs),
(265,-74,o),
(240,-56,o),
(230,-27,c),
(27,-27,l),
(38,-142,o),
(146,-216,o),
(303,-216,cs)
);
},
{
closed = 1;
nodes = (
(354,6,o),
(419,107,o),
(419,269,cs),
(419,426,o),
(356,531,o),
(235,531,cs),
(116,531,o),
(24,429,o),
(24,269,cs),
(24,111,o),
(114,6,o),
(235,6,cs)
);
},
{
closed = 1;
nodes = (
(254,156,o),
(227,194,o),
(227,264,cs),
(227,335,o),
(254,374,o),
(300,374,cs),
(346,374,o),
(370,335,o),
(370,264,cs),
(370,194,o),
(346,156,o),
(300,156,cs)
);
}
);
width = 599;
}
);
unicode = 103;
},
{
glyphname = h;
kernLeft = B2;
kernRight = a;
lastChange = "2026-01-19 16:04:56 +0000";
layers = (
{
anchors = (
{
name = bottom;
pos = (290,0);
},
{
name = center;
pos = (290,400);
},
{
name = top;
pos = (290,800);
}
);
layerId = m01;
shapes = (
{
closed = 1;
nodes = (
(500,0,l),
(500,325,ls),
(500,441,o),
(432,516,o),
(328,516,cs),
(211,516,o),
(136,432,o),
(136,302,c),
(168,302,l),
(168,388,o),
(218,443,o),
(298,443,cs),
(370,443,o),
(417,390,o),
(417,307,cs),
(417,0,l)
);
},
{
closed = 1;
nodes = (
(168,0,l),
(168,700,l),
(85,700,l),
(85,0,l)
);
}
);
width = 580;
},
{
anchors = (
{
name = bottom;
pos = (306,0);
},
{
name = center;
pos = (306,412);
},
{
name = top;
pos = (306,824);
}
);
layerId = m002;
shapes = (
{
closed = 1;
nodes = (
(579,0,l),
(579,335,ls),
(579,454,o),
(508,531,o),
(402,531,cs),
(289,531,o),
(217,445,o),
(217,311,c),
(248,273,l),
(248,320,o),
(275,350,o),
(313,350,cs),
(351,350,o),
(374,319,o),
(374,271,cs),
(374,0,l)
);
},
{
closed = 1;
nodes = (
(248,0,l),
(248,700,l),
(42,700,l),
(42,0,l)
);
}
);
width = 617;
}
);
unicode = 104;
},
{
glyphname = hbar;
lastChange = "2026-01-21 14:23:08 +0000";
layers = (
{
layerId = m01;
shapes = (
{
ref = h;
},
{
closed = 1;
nodes = (
(15,586,l),
(342,586,l),
(342,650,l),
(15,650,l)
);
}
);
width = 580;
},
{
layerId = m002;
shapes = (
{
ref = h;
},
{
closed = 1;
nodes = (
(15,586,l),
(342,586,l),
(342,650,l),
(15,650,l)
);
}
);
width = 617;
}
);
metricRight = h;
unicode = 295;
},
{
glyphname = i;
kernLeft = i2;
kernRight = i;
lastChange = "2026-01-19 15:59:45 +0000";
layers = (
{
anchors = (
{
name = bottom;
pos = (127,0);
},
{
name = ogonek;
pos = (168,0);
}
);
layerId = m01;
shapes = (
{
closed = 1;
nodes = (
(168,0,l),
(168,500,l),
(85,500,l),
(85,0,l)
);
},
{
closed = 1;
nodes = (
(168,598,l),
(168,700,l),
(85,700,l),
(85,598,l)
);
}
);
width = 253;
},
{
anchors = (
{
name = bottom;
pos = (146,0);
},
{
name = ogonek;
pos = (249,0);
}
);
layerId = m002;
shapes = (
{
closed = 1;
nodes = (
(248,0,l),
(248,515,l),
(42,515,l),
(42,0,l)
);
},
{
closed = 1;
nodes = (
(248,555,l),
(248,700,l),
(44,700,l),
(44,555,l)
);
}
);
width = 290;
}
);
unicode = 105;
},
{
glyphname = idotless;
kernLeft = i2;
kernRight = i;
lastChange = "2026-01-19 15:36:08 +0000";
layers = (
{
anchors = (
{
name = bottom;
pos = (127,0);
},
{
name = top;
pos = (127,500);
}
);
layerId = m01;
shapes = (
{
closed = 1;
nodes = (
(168,0,l),
(168,500,l),
(85,500,l),
(85,0,l)
);
}
);
width = 253;
},
{
anchors = (
{
name = bottom;
pos = (131,0);
},
{
name = top;
pos = (131,515);
}
);
layerId = m002;
shapes = (
{
closed = 1;
nodes = (
(173,0,l),
(173,515,l),
(88,515,l),
(88,0,l)
);
}
);
width = 261;
}
);
unicode = 305;
},
{
glyphname = j;
kernLeft = j;
kernRight = i;
lastChange = "2026-01-21 03:20:07 +0000";
layers = (
{
layerId = m01;
shapes = (
{
closed = 1;
nodes = (
(128,-209,o),
(176,-162,o),
(176,-73,cs),
(176,500,l),
(93,500,l),
(93,-73,ls),
(93,-114,o),
(73,-137,o),
(31,-137,cs),
(-25,-137,l),
(-25,-205,l),
(-5,-208,o),
(14,-209,o),
(41,-209,cs)
);
},
{
closed = 1;
nodes = (
(176,598,l),
(176,700,l),
(93,700,l),
(93,598,l)
);
}
);
width = 261;
},
{
layerId = m002;
shapes = (
{
closed = 1;
nodes = (
(165,-209,o),
(242,-140,o),
(242,-19,cs),
(242,515,l),
(36,515,l),
(36,0,ls),
(36,-29,o),
(20,-45,o),
(-8,-45,cs),
(-56,-45,l),
(-56,-195,l),
(-33,-204,o),
(-1,-209,o),
(32,-209,cs)
);
},
{
closed = 1;
nodes = (
(242,555,l),
(242,700,l),
(36,700,l),
(36,555,l)
);
}
);
width = 269;
}
);
unicode = 106;
},
{
glyphname = jdotless;
kernLeft = j;
kernRight = i;
lastChange = "2026-01-19 15:36:08 +0000";
layers = (
{
anchors = (
{
name = bottom;
pos = (131,-200);
},
{
name = top;
pos = (131,500);
}
);
layerId = m01;
shapes = (
{
closed = 1;
nodes = (
(128,-209,o),
(176,-162,o),
(176,-73,cs),
(176,500,l),
(93,500,l),
(93,-73,ls),
(93,-114,o),
(73,-137,o),
(31,-137,cs),
(-25,-137,l),
(-25,-205,l),
(-5,-208,o),
(14,-209,o),
(41,-209,cs)
);
}
);
width = 261;
},
{
anchors = (
{
name = bottom;
pos = (135,-206);
},
{
name = top;
pos = (135,515);
}
);
layerId = m002;
shapes = (
{
closed = 1;
nodes = (
(132,-215,o),
(181,-167,o),
(181,-75,cs),
(181,515,l),
(96,515,l),
(96,-75,ls),
(96,-117,o),
(75,-141,o),
(32,-141,cs),
(-26,-141,l),
(-26,-211,l),
(-5,-214,o),
(14,-215,o),
(42,-215,cs)
);
}
);
width = 269;
}
);
unicode = 567;
},
{
glyphname = k;
kernLeft = B2;
kernRight = k;
lastChange = "2026-01-21 03:24:26 +0000";
layers = (
{
anchors = (
{
name = bottom;
pos = (254,0);
},
{
name = top;
pos = (254,800);
}
);
layerId = m01;
shapes = (
{
closed = 1;
nodes = (
(486,500,l),
(382,500,l),
(111,210,l),
(158,155,l)
);
},
{
closed = 1;
nodes = (
(166,0,l),
(166,700,l),
(85,700,l),
(85,0,l)
);
},
{
closed = 1;
nodes = (
(487,0,l),
(259,349,l),
(206,291,l),
(391,0,l)
);
}
);
width = 507;
},
{
anchors = (
{
name = bottom;
pos = (327,0);
},
{
name = top;
pos = (327,824);
}
);
layerId = m002;
shapes = (
{
closed = 1;
nodes = (
(616,515,l),
(378,515,l),
(64,186,l),
(238,130,l)
);
},
{
closed = 1;
nodes = (
(248,0,l),
(248,700,l),
(42,700,l),
(42,0,l)
);
},
{
closed = 1;
nodes = (
(607,0,l),
(418,363,l),
(238,304,l),
(373,0,l)
);
}
);
width = 617;
}
);
unicode = 107;
},
{
glyphname = l;
kernLeft = B2;
kernRight = H;
lastChange = "2026-01-19 15:59:57 +0000";
layers = (
{
anchors = (
{
name = bottom;
pos = (127,0);
},
{
name = center;
pos = (127,400);
},
{
name = top;
pos = (127,800);
},
{
name = topright;
pos = (203,700);
}
);
layerId = m01;
shapes = (
{
closed = 1;
nodes = (
(168,0,l),
(168,700,l),
(85,700,l),
(85,0,l)
);
}
);
width = 253;
},
{
anchors = (
{
name = bottom;
pos = (146,0);
},
{
name = center;
pos = (146,412);
},
{
name = top;
pos = (146,824);
},
{
name = topright;
pos = (224,721);
}
);
layerId = m002;
shapes = (
{
closed = 1;
nodes = (
(248,0,l),
(248,700,l),
(42,700,l),
(42,0,l)
);
}
);
width = 290;
}
);
unicode = 108;
},
{
glyphname = lslash;
lastChange = "2026-01-19 15:34:25 +0000";
layers = (
{
layerId = m01;
shapes = (
{
closed = 1;
nodes = (
(168,0,l),
(168,700,l),
(85,700,l),
(85,0,l)
);
},
{
closed = 1;
nodes = (
(15,252,l),
(242,382,l),
(242,463,l),
(15,333,l)
);
}
);
width = 253;
},
{
layerId = m002;
shapes = (
{
closed = 1;
nodes = (
(168,0,l),
(168,700,l),
(85,700,l),
(85,0,l)
);
},
{
closed = 1;
nodes = (
(15,252,l),
(242,382,l),
(242,463,l),
(15,333,l)
);
}
);
width = 253;
}
);
unicode = 322;
},
{
glyphname = m;
kernLeft = m;
kernRight = a;
lastChange = "2026-01-19 16:08:03 +0000";
layers = (
{
anchors = (
{
name = bottom;
pos = (424,0);
},
{
name = top;
pos = (424,500);
}
);
layerId = m01;
shapes = (
{
closed = 1;
nodes = (
(768,0,l),
(768,325,ls),
(768,443,o),
(704,518,o),
(602,516,cs),
(496,514,o),
(424,430,o),
(421,302,c),
(468,302,l),
(470,388,o),
(516,443,o),
(582,443,cs),
(646,443,o),
(686,390,o),
(686,307,cs),
(686,0,l)
);
},
{
closed = 1;
nodes = (
(168,0,l),
(168,407,l),
(168,420,l),
(168,500,l),
(85,500,l),
(85,0,l)
);
},
{
closed = 1;
nodes = (
(468,0,l),
(468,325,ls),
(468,441,o),
(406,516,o),
(307,516,cs),
(203,516,o),
(134,432,o),
(133,302,c),
(168,302,l),
(170,388,o),
(211,443,o),
(277,443,cs),
(341,443,o),
(385,390,o),
(385,307,cs),
(385,0,l)
);
}
);
width = 848;
},
{
anchors = (
{
name = bottom;
pos = (437,0);
},
{
name = top;
pos = (437,515);
}
);
layerId = m002;
shapes = (
{
closed = 1;
nodes = (
(869,0,l),
(869,345,ls),
(869,458,o),
(806,531,o),
(712,531,cs),
(593,531,o),
(517,445,o),
(517,311,c),
(558,293,l),
(558,328,o),
(581,350,o),
(613,350,cs),
(645,350,o),
(664,327,o),
(664,291,cs),
(664,0,l)
);
},
{
closed = 1;
nodes = (
(247,0,l),
(247,380,l),
(237,408,l),
(237,515,l),
(40,515,l),
(40,0,l)
);
},
{
closed = 1;
nodes = (
(558,0,l),
(558,345,ls),
(558,458,o),
(495,531,o),
(401,531,cs),
(282,531,o),
(206,445,o),
(206,311,c),
(247,293,l),
(247,328,o),
(270,350,o),
(302,350,cs),
(334,350,o),
(353,327,o),
(353,291,cs),
(353,0,l)
);
}
);
width = 907;
}
);
unicode = 109;
},
{
glyphname = n;
kernLeft = m;
kernRight = a;
lastChange = "2026-01-19 16:04:44 +0000";
layers = (
{
anchors = (
{
name = bottom;
pos = (290,0);
},
{
name = top;
pos = (290,500);
}
);
layerId = m01;
shapes = (
{
closed = 1;
nodes = (
(499,0,l),
(499,325,ls),
(499,441,o),
(431,516,o),
(327,516,cs),
(210,516,o),
(135,432,o),
(135,302,c),
(167,302,l),
(167,388,o),
(217,443,o),
(297,443,cs),
(369,443,o),
(416,390,o),
(416,307,cs),
(416,0,l)
);
},
{
closed = 1;
nodes = (
(167,0,l),
(167,369,l),
(167,396,l),
(167,500,l),
(85,500,l),
(85,0,l)
);
}
);
width = 579;
},
{
anchors = (
{
name = bottom;
pos = (313,0);
},
{
name = top;
pos = (313,515);
}
);
layerId = m002;
shapes = (
{
closed = 1;
nodes = (
(578,0,l),
(578,335,ls),
(578,454,o),
(507,531,o),
(401,531,cs),
(282,531,o),
(206,445,o),
(206,311,c),
(247,273,l),
(247,320,o),
(274,350,o),
(312,350,cs),
(350,350,o),
(373,319,o),
(373,271,cs),
(373,0,l)
);
},
{
closed = 1;
nodes = (
(247,0,l),
(247,380,l),
(237,408,l),
(237,515,l),
(40,515,l),
(40,0,l)
);
}
);
width = 616;
}
);
unicode = 110;
},
{
glyphname = eng;
lastChange = "2026-01-21 14:23:08 +0000";
layers = (
{
layerId = m01;
shapes = (
{
closed = 1;
nodes = (
(416,-73,ls),
(416,-114,o),
(396,-137,o),
(354,-137,cs),
(298,-137,l),
(298,-205,l),
(318,-208,o),
(337,-209,o),
(364,-209,cs),
(451,-209,o),
(499,-162,o),
(499,-73,cs),
(499,325,ls),
(499,441,o),
(431,516,o),
(327,516,cs),
(210,516,o),
(135,432,o),
(135,302,c),
(167,302,l),
(167,388,o),
(217,443,o),
(297,443,cs),
(369,443,o),
(416,390,o),
(416,307,cs)
);
},
{
closed = 1;
nodes = (
(167,0,l),
(167,369,l),
(167,396,l),
(167,500,l),
(85,500,l),
(85,0,l)
);
}
);
width = 579;
},
{
layerId = m002;
shapes = (
{
closed = 1;
nodes = (
(371,-73,ls),
(371,-114,o),
(351,-137,o),
(309,-137,cs),
(253,-137,l),
(253,-205,l),
(273,-208,o),
(292,-209,o),
(319,-209,cs),
(406,-209,o),
(454,-162,o),
(454,-73,cs),
(454,325,ls),
(454,441,o),
(386,516,o),
(282,516,cs),
(165,516,o),
(90,432,o),
(90,302,c),
(122,302,l),
(122,388,o),
(172,443,o),
(252,443,cs),
(324,443,o),
(371,390,o),
(371,307,cs)
);
},
{
closed = 1;
nodes = (
(122,0,l),
(122,369,l),
(122,396,l),
(122,500,l),
(40,500,l),
(40,0,l)
);
}
);
width = 492;
}
);
metricLeft = n;
metricRight = n;
unicode = 331;
},
{
glyphname = o;
kernLeft = c;
kernRight = b;
lastChange = "2026-01-19 15:55:41 +0000";
layers = (
{
anchors = (
{
name = bottom;
pos = (288,0);
},
{
name = center;
pos = (288,250);
},
{
name = ogonek;
pos = (518,10);
},
{
name = top;
pos = (288,500);
},
{
name = topright;
pos = (556,500);
}
);
layerId = m01;
shapes = (
{
closed = 1;
nodes = (
(429,-16,o),
(526,92,o),
(526,250,cs),
(526,408,o),
(429,516,o),
(288,516,cs),
(147,516,o),
(50,408,o),
(50,250,cs),
(50,92,o),
(147,-16,o),
(288,-16,cs)
);
},
{
closed = 1;
nodes = (
(197,57,o),
(135,136,o),
(135,250,cs),
(135,364,o),
(197,442,o),
(288,442,cs),
(379,442,o),
(441,364,o),
(441,250,cs),
(441,136,o),
(379,57,o),
(288,57,cs)
);
}
);
width = 576;
},
{
anchors = (
{
name = bottom;
pos = (311,0);
},
{
name = center;
pos = (311,258);
},
{
name = ogonek;
pos = (548,10);
},
{
name = top;
pos = (311,515);
},
{
name = topright;
pos = (587,515);
}
);
layerId = m002;
shapes = (
{
closed = 1;
nodes = (
(482,-17,o),
(600,95,o),
(600,258,cs),
(600,420,o),
(482,532,o),
(311,532,cs),
(139,532,o),
(21,420,o),
(21,258,cs),
(21,95,o),
(139,-17,o),
(311,-17,cs)
);
},
{
closed = 1;
nodes = (
(258,138,o),
(226,183,o),
(226,258,cs),
(226,331,o),
(258,376,o),
(311,376,cs),
(363,376,o),
(395,331,o),
(395,258,cs),
(395,183,o),
(363,138,o),
(311,138,cs)
);
}
);
width = 621;
}
);
unicode = 111;
},
{
glyphname = oslash;
lastChange = "2026-01-19 15:34:25 +0000";
layers = (
{
layerId = m01;
shapes = (
{
closed = 1;
nodes = (
(518,545,l),
(434,545,l),
(63,-40,l),
(147,-40,l)
);
},
{
closed = 1;
nodes = (
(429,-16,o),
(526,92,o),
(526,250,cs),
(526,408,o),
(429,516,o),
(288,516,cs),
(147,516,o),
(50,408,o),
(50,250,cs),
(50,92,o),
(147,-16,o),
(288,-16,cs)
);
},
{
closed = 1;
nodes = (
(197,57,o),
(135,136,o),
(135,250,cs),
(135,364,o),
(197,442,o),
(288,442,cs),
(379,442,o),
(441,364,o),
(441,250,cs),
(441,136,o),
(379,57,o),
(288,57,cs)
);
}
);
width = 600;
},
{
layerId = m002;
shapes = (
{
closed = 1;
nodes = (
(518,545,l),
(434,545,l),
(63,-40,l),
(147,-40,l)
);
},
{
closed = 1;
nodes = (
(429,-16,o),
(526,92,o),
(526,250,cs),
(526,408,o),
(429,516,o),
(288,516,cs),
(147,516,o),
(50,408,o),
(50,250,cs),
(50,92,o),
(147,-16,o),
(288,-16,cs)
);
},
{
closed = 1;
nodes = (
(197,57,o),
(135,136,o),
(135,250,cs),
(135,364,o),
(197,442,o),
(288,442,cs),
(379,442,o),
(441,364,o),
(441,250,cs),
(441,136,o),
(379,57,o),
(288,57,cs)
);
}
);
width = 600;
}
);
unicode = 248;
},
{
glyphname = oe;
lastChange = "2026-01-21 14:23:08 +0000";
layers = (
{
layerId = m01;
shapes = (
{
closed = 1;
nodes = (
(423,-16,o),
(516,92,o),
(516,250,cs),
(516,408,o),
(423,516,o),
(288,516,cs),
(147,516,o),
(50,408,o),
(50,250,cs),
(50,92,o),
(147,-16,o),
(288,-16,cs)
);
},
{
closed = 1;
nodes = (
(197,57,o),
(135,136,o),
(135,250,cs),
(135,364,o),
(197,442,o),
(288,442,cs),
(379,442,o),
(441,364,o),
(441,250,cs),
(441,136,o),
(379,57,o),
(288,57,cs)
);
},
{
closed = 1;
nodes = (
(786,-16,o),
(865,37,o),
(889,120,c),
(808,141,l),
(788,91,o),
(745,58,o),
(684,58,cs),
(595,58,o),
(528,127,o),
(528,250,cs),
(528,362,o),
(583,445,o),
(675,445,cs),
(754,445,o),
(811,383,o),
(811,288,c),
(833,298,l),
(505,298,l),
(505,233,l),
(901,233,l),
(901,250,ls),
(901,411,o),
(814,516,o),
(675,516,cs),
(541,516,o),
(451,410,o),
(451,250,cs),
(451,88,o),
(544,-16,o),
(683,-16,cs)
);
}
);
width = 951;
},
{
layerId = m002;
shapes = (
{
closed = 1;
nodes = (
(394,-16,o),
(487,92,o),
(487,250,cs),
(487,408,o),
(394,516,o),
(259,516,cs),
(118,516,o),
(21,408,o),
(21,250,cs),
(21,92,o),
(118,-16,o),
(259,-16,cs)
);
},
{
closed = 1;
nodes = (
(168,57,o),
(106,136,o),
(106,250,cs),
(106,364,o),
(168,442,o),
(259,442,cs),
(350,442,o),
(412,364,o),
(412,250,cs),
(412,136,o),
(350,57,o),
(259,57,cs)
);
},
{
closed = 1;
nodes = (
(757,-16,o),
(836,37,o),
(860,120,c),
(779,141,l),
(759,91,o),
(716,58,o),
(655,58,cs),
(566,58,o),
(499,127,o),
(499,250,cs),
(499,362,o),
(554,445,o),
(646,445,cs),
(725,445,o),
(782,383,o),
(782,288,c),
(804,298,l),
(476,298,l),
(476,233,l),
(872,233,l),
(872,250,ls),
(872,411,o),
(785,516,o),
(646,516,cs),
(512,516,o),
(422,410,o),
(422,250,cs),
(422,88,o),
(515,-16,o),
(654,-16,cs)
);
}
);
width = 892;
}
);
metricLeft = o;
metricRight = e;
unicode = 339;
},
{
glyphname = p;
kernLeft = m;
kernRight = b;
lastChange = "2026-01-19 16:04:03 +0000";
layers = (
{
anchors = (
{
name = bottom;
pos = (305,0);
},
{
name = top;
pos = (305,500);
}
);
layerId = m01;
shapes = (
{
closed = 1;
nodes = (
(474,-16,o),
(560,89,o),
(560,250,cs),
(560,411,o),
(474,516,o),
(342,516,cs),
(211,516,o),
(127,411,o),
(127,250,cs),
(127,89,o),
(211,-16,o),
(342,-16,cs)
);
},
{
closed = 1;
nodes = (
(168,-200,l),
(168,317,l),
(168,330,l),
(168,500,l),
(85,500,l),
(85,-200,l)
);
},
{
closed = 1;
nodes = (
(228,58,o),
(168,133,o),
(168,250,cs),
(168,367,o),
(228,443,o),
(321,443,cs),
(414,443,o),
(475,367,o),
(475,250,cs),
(475,133,o),
(414,58,o),
(321,58,cs)
);
}
);
width = 610;
},
{
anchors = (
{
name = bottom;
pos = (314,0);
},
{
name = top;
pos = (314,515);
}
);
layerId = m002;
shapes = (
{
closed = 1;
nodes = (
(518,-16,o),
(603,91,o),
(603,257,cs),
(603,423,o),
(518,531,o),
(387,531,cs),
(265,531,o),
(186,423,o),
(186,257,cs),
(186,91,o),
(265,-16,o),
(387,-16,cs)
);
},
{
closed = 1;
nodes = (
(248,-200,l),
(248,327,l),
(238,340,l),
(238,515,l),
(42,515,l),
(42,-200,l)
);
},
{
closed = 1;
nodes = (
(274,139,o),
(248,180,o),
(248,257,cs),
(248,334,o),
(274,376,o),
(322,376,cs),
(373,376,o),
(400,334,o),
(400,257,cs),
(400,180,o),
(373,139,o),
(322,139,cs)
);
}
);
width = 623;
}
);
unicode = 112;
},
{
glyphname = thorn;
lastChange = "2026-01-21 14:23:08 +0000";
layers = (
{
layerId = m01;
shapes = (
{
closed = 1;
nodes = (
(474,-16,o),
(560,89,o),
(560,250,cs),
(560,411,o),
(474,516,o),
(342,516,cs),
(211,516,o),
(127,411,o),
(127,250,cs),
(127,89,o),
(211,-16,o),
(342,-16,cs)
);
},
{
closed = 1;
nodes = (
(168,-200,l),
(168,700,l),
(85,700,l),
(85,-200,l)
);
},
{
closed = 1;
nodes = (
(228,56,o),
(168,132,o),
(168,250,cs),
(168,368,o),
(228,445,o),
(321,445,cs),
(415,445,o),
(476,368,o),
(476,250,cs),
(476,132,o),
(415,56,o),
(321,56,cs)
);
}
);
width = 610;
},
{
layerId = m002;
shapes = (
{
closed = 1;
nodes = (
(431,-16,o),
(517,89,o),
(517,250,cs),
(517,411,o),
(431,516,o),
(299,516,cs),
(168,516,o),
(84,411,o),
(84,250,cs),
(84,89,o),
(168,-16,o),
(299,-16,cs)
);
},
{
closed = 1;
nodes = (
(125,-200,l),
(125,700,l),
(42,700,l),
(42,-200,l)
);
},
{
closed = 1;
nodes = (
(185,56,o),
(125,132,o),
(125,250,cs),
(125,368,o),
(185,445,o),
(278,445,cs),
(372,445,o),
(433,368,o),
(433,250,cs),
(433,132,o),
(372,56,o),
(278,56,cs)
);
}
);
width = 537;
}
);
metricLeft = p;
metricRight = p;
unicode = 254;
},
{
glyphname = q;
kernLeft = c;
kernRight = g;
lastChange = "2026-01-19 16:04:13 +0000";
layers = (
{
anchors = (
{
name = bottom;
pos = (305,0);
},
{
name = top;
pos = (305,500);
}
);
layerId = m01;
shapes = (
{
closed = 1;
nodes = (
(399,-16,o),
(483,89,o),
(483,250,cs),
(483,411,o),
(399,516,o),
(268,516,cs),
(136,516,o),
(50,411,o),
(50,250,cs),
(50,89,o),
(136,-16,o),
(268,-16,cs)
);
},
{
closed = 1;
nodes = (
(196,58,o),
(135,133,o),
(135,250,cs),
(135,367,o),
(196,443,o),
(289,443,cs),
(382,443,o),
(442,367,o),
(442,250,cs),
(442,133,o),
(382,58,o),
(289,58,cs)
);
},
{
closed = 1;
nodes = (
(525,-200,l),
(525,500,l),
(442,500,l),
(442,330,l),
(442,317,l),
(442,-200,l)
);
}
);
width = 610;
},
{
anchors = (
{
name = bottom;
pos = (314,0);
},
{
name = top;
pos = (314,515);
}
);
layerId = m002;
shapes = (
{
closed = 1;
nodes = (
(358,-16,o),
(437,91,o),
(437,257,cs),
(437,423,o),
(358,531,o),
(236,531,cs),
(105,531,o),
(20,423,o),
(20,257,cs),
(20,91,o),
(105,-16,o),
(236,-16,cs)
);
},
{
closed = 1;
nodes = (
(250,139,o),
(223,180,o),
(223,257,cs),
(223,334,o),
(250,376,o),
(301,376,cs),
(349,376,o),
(375,334,o),
(375,257,cs),
(375,180,o),
(349,139,o),
(301,139,cs)
);
},
{
closed = 1;
nodes = (
(581,-200,l),
(581,515,l),
(385,515,l),
(385,340,l),
(375,327,l),
(375,-200,l)
);
}
);
width = 623;
}
);
unicode = 113;
},
{
glyphname = r;
kernLeft = m;
kernRight = r;
lastChange = "2026-01-21 03:32:21 +0000";
layers = (
{
anchors = (
{
name = bottom;
pos = (180,0);
},
{
name = top;
pos = (180,500);
}
);
layerId = m01;
shapes = (
{
closed = 1;
nodes = (
(168,282,l),
(168,380,o),
(220,433,o),
(317,433,cs),
(334,433,l),
(334,511,l),
(317,511,ls),
(201,511,o),
(138,431,o),
(138,282,c)
);
},
{
closed = 1;
nodes = (
(168,0,l),
(168,384,l),
(165,399,l),
(165,500,l),
(85,500,l),
(85,0,l)
);
}
);
width = 359;
},
{
anchors = (
{
name = bottom;
pos = (238,0);
},
{
name = top;
pos = (238,515);
}
);
layerId = m002;
shapes = (
{
closed = 1;
nodes = (
(246,237,l),
(246,293,o),
(293,323,o),
(380,323,cs),
(397,323,l),
(397,523,l),
(380,523,ls),
(276,523,o),
(182,423,o),
(182,237,c)
);
},
{
closed = 1;
nodes = (
(246,0,l),
(246,396,l),
(236,411,l),
(236,515,l),
(40,515,l),
(40,0,l)
);
}
);
width = 407;
}
);
unicode = 114;
},
{
glyphname = s;
kernLeft = s2;
kernRight = s;
lastChange = "2026-01-21 14:21:42 +0000";
layers = (
{
anchors = (
{
name = bottom;
pos = (236,0);
},
{
name = top;
pos = (236,500);
}
);
layerId = m01;
shapes = (
{
closed = 1;
nodes = (
(368,-13,o),
(436,61,o),
(436,144,cs),
(436,218,o),
(383,259,o),
(301,281,cs),
(209,305,ls),
(171,315,o),
(146,334,o),
(146,368,cs),
(146,409,o),
(184,446,o),
(244,446,cs),
(305,446,o),
(365,408,o),
(395,350,c),
(348,354,l),
(473,470,l),
(455,397,l),
(414,469,o),
(332,516,o),
(243,516,cs),
(136,516,o),
(65,447,o),
(65,364,cs),
(65,294,o),
(116,251,o),
(195,230,cs),
(279,208,ls),
(326,196,o),
(357,173,o),
(357,136,cs),
(357,94,o),
(316,57,o),
(251,57,cs),
(182,57,o),
(117,98,o),
(87,162,c),
(149,167,l),
(18,54,l),
(25,119,l),
(62,39,o),
(155,-13,o),
(252,-13,cs)
);
}
);
width = 471;
},
{
anchors = (
{
name = bottom;
pos = (258,0);
},
{
name = top;
pos = (258,515);
}
);
layerId = m002;
shapes = (
{
closed = 1;
nodes = (
(401,-13,o),
(491,66,o),
(491,169,cs),
(491,258,o),
(423,317,o),
(319,338,cs),
(263,350,ls),
(245,354,o),
(233,358,o),
(233,370,cs),
(233,380,o),
(240,393,o),
(271,393,cs),
(311,393,o),
(367,369,o),
(393,331,c),
(357,325,l),
(488,491,l),
(493,453,l),
(448,500,o),
(343,531,o),
(255,531,cs),
(112,531,o),
(38,448,o),
(38,354,cs),
(38,263,o),
(106,212,o),
(211,191,cs),
(270,178,ls),
(286,175,o),
(296,165,o),
(296,154,cs),
(296,141,o),
(283,134,o),
(251,134,cs),
(190,134,o),
(126,162,o),
(100,206,c),
(129,213,l),
(-14,36,l),
(-7,83,l),
(44,25,o),
(150,-13,o),
(253,-13,cs)
);
}
);
width = 506;
}
);
unicode = 115;
},
{
glyphname = germandbls;
lastChange = "2026-01-21 14:23:08 +0000";
layers = (
{
layerId = m01;
shapes = (
{
closed = 1;
nodes = (
(332,0,ls),
(466,0,o),
(558,88,o),
(558,198,cs),
(558,309,o),
(466,374,o),
(332,374,cs),
(277,374,l),
(277,316,l),
(332,316,ls),
(418,316,o),
(477,269,o),
(477,198,cs),
(477,127,o),
(418,76,o),
(332,76,cs),
(262,76,l),
(262,0,l)
);
},
{
closed = 1;
nodes = (
(321,342,ls),
(449,342,o),
(537,402,o),
(537,514,cs),
(537,624,o),
(452,716,o),
(321,716,cs),
(187,716,o),
(90,620,o),
(90,480,cs),
(90,0,l),
(172,0,l),
(172,480,ls),
(172,575,o),
(232,641,o),
(321,641,cs),
(400,641,o),
(456,588,o),
(456,514,cs),
(456,441,o),
(401,393,o),
(321,393,cs),
(277,393,l),
(277,342,l)
);
}
);
width = 608;
},
{
layerId = m002;
shapes = (
{
closed = 1;
nodes = (
(284,0,ls),
(418,0,o),
(510,88,o),
(510,198,cs),
(510,309,o),
(418,374,o),
(284,374,cs),
(229,374,l),
(229,316,l),
(284,316,ls),
(370,316,o),
(429,269,o),
(429,198,cs),
(429,127,o),
(370,76,o),
(284,76,cs),
(214,76,l),
(214,0,l)
);
},
{
closed = 1;
nodes = (
(273,342,ls),
(401,342,o),
(489,402,o),
(489,514,cs),
(489,624,o),
(404,716,o),
(273,716,cs),
(139,716,o),
(42,620,o),
(42,480,cs),
(42,0,l),
(124,0,l),
(124,480,ls),
(124,575,o),
(184,641,o),
(273,641,cs),
(352,641,o),
(408,588,o),
(408,514,cs),
(408,441,o),
(353,393,o),
(273,393,cs),
(229,393,l),
(229,342,l)
);
}
);
width = 530;
}
);
metricLeft = B;
metricRight = B;
unicode = 223;
},
{
glyphname = t;
kernLeft = t2;
kernRight = t;
lastChange = "2026-01-19 16:00:06 +0000";
layers = (
{
anchors = (
{
name = bottom;
pos = (232,0);
},
{
name = center;
pos = (172,250);
},
{
name = top;
pos = (172,500);
},
{
name = topright;
pos = (212,780);
}
);
layerId = m01;
shapes = (
{
closed = 1;
nodes = (
(271,-10,o),
(289,-9,o),
(309,-5,c),
(309,61,l),
(253,61,ls),
(212,61,o),
(191,85,o),
(191,126,cs),
(191,643,l),
(109,643,l),
(109,126,ls),
(109,37,o),
(156,-10,o),
(244,-10,cs)
);
},
{
closed = 1;
nodes = (
(307,428,l),
(307,500,l),
(25,500,l),
(25,428,l)
);
}
);
width = 344;
},
{
anchors = (
{
name = bottom;
pos = (258,0);
},
{
name = center;
pos = (196,258);
},
{
name = top;
pos = (196,515);
},
{
name = topright;
pos = (237,803);
}
);
layerId = m002;
shapes = (
{
closed = 1;
nodes = (
(319,-10,o),
(359,-7,o),
(386,-2,c),
(386,150,l),
(334,150,ls),
(308,150,o),
(291,165,o),
(291,187,cs),
(291,652,l),
(87,652,l),
(87,150,ls),
(87,46,o),
(156,-10,o),
(285,-10,cs)
);
},
{
closed = 1;
nodes = (
(386,360,l),
(386,515,l),
(10,515,l),
(10,360,l)
);
}
);
width = 402;
}
);
unicode = 116;
},
{
glyphname = u;
kernLeft = m;
kernRight = g;
lastChange = "2026-01-19 16:04:49 +0000";
layers = (
{
anchors = (
{
name = bottom;
pos = (290,0);
},
{
name = ogonek;
pos = (494,0);
},
{
name = top;
pos = (290,500);
},
{
name = topright;
pos = (559,500);
}
);
layerId = m01;
shapes = (
{
closed = 1;
nodes = (
(369,-16,o),
(444,68,o),
(444,198,c),
(412,198,l),
(412,111,o),
(362,55,o),
(282,55,cs),
(210,55,o),
(163,109,o),
(163,193,cs),
(163,500,l),
(80,500,l),
(80,175,ls),
(80,59,o),
(148,-16,o),
(252,-16,cs)
);
},
{
closed = 1;
nodes = (
(494,0,l),
(494,500,l),
(412,500,l),
(412,131,l),
(415,104,l),
(415,0,l)
);
}
);
width = 579;
},
{
anchors = (
{
name = bottom;
pos = (299,0);
},
{
name = ogonek;
pos = (509,0);
},
{
name = top;
pos = (299,515);
},
{
name = topright;
pos = (576,515);
}
);
layerId = m002;
shapes = (
{
closed = 1;
nodes = (
(338,-16,o),
(410,70,o),
(410,204,c),
(369,242,l),
(369,195,o),
(342,165,o),
(304,165,cs),
(266,165,o),
(243,196,o),
(243,244,cs),
(243,515,l),
(38,515,l),
(38,180,ls),
(38,61,o),
(113,-16,o),
(224,-16,cs)
);
},
{
closed = 1;
nodes = (
(576,0,l),
(576,515,l),
(369,515,l),
(369,135,l),
(379,107,l),
(379,0,l)
);
}
);
width = 616;
}
);
unicode = 117;
},
{
glyphname = v;
kernLeft = v2;
kernRight = v;
lastChange = "2026-01-21 03:25:22 +0000";
layers = (
{
anchors = (
{
name = bottom;
pos = (255,0);
},
{
name = top;
pos = (255,500);
}
);
layerId = m01;
shapes = (
{
closed = 1;
nodes = (
(295,0,l),
(484,500,l),
(401,500,l),
(242,68,l),
(267,68,l),
(108,500,l),
(25,500,l),
(214,0,l)
);
}
);
width = 509;
},
{
anchors = (
{
name = bottom;
pos = (288,0);
},
{
name = top;
pos = (288,515);
}
);
layerId = m002;
shapes = (
{
closed = 1;
nodes = (
(394,0,l),
(583,515,l),
(367,515,l),
(227,70,l),
(353,70,l),
(213,515,l),
(-2,515,l),
(186,0,l)
);
}
);
width = 581;
}
);
unicode = 118;
},
{
glyphname = w;
kernLeft = w2;
kernRight = w;
lastChange = "2026-01-21 03:26:47 +0000";
layers = (
{
anchors = (
{
name = bottom;
pos = (372,0);
},
{
name = top;
pos = (372,500);
}
);
layerId = m01;
shapes = (
{
closed = 1;
nodes = (
(261,0,l),
(376,394,l),
(368,394,l),
(483,0,l),
(563,0,l),
(719,500,l),
(635,500,l),
(515,83,l),
(533,83,l),
(404,500,l),
(339,500,l),
(211,83,l),
(229,83,l),
(109,500,l),
(25,500,l),
(181,0,l)
);
}
);
width = 744;
},
{
anchors = (
{
name = bottom;
pos = (417,0);
},
{
name = top;
pos = (417,515);
}
);
layerId = m002;
shapes = (
{
closed = 1;
nodes = (
(355,0,l),
(455,406,l),
(380,406,l),
(480,0,l),
(681,0,l),
(837,515,l),
(624,515,l),
(504,85,l),
(608,85,l),
(493,515,l),
(341,515,l),
(227,85,l),
(330,85,l),
(210,515,l),
(-2,515,l),
(153,0,l)
);
}
);
width = 835;
}
);
unicode = 119;
},
{
glyphname = x;
kernLeft = x2;
kernRight = x;
lastChange = "2026-01-21 03:29:04 +0000";
layers = (
{
anchors = (
{
name = bottom;
pos = (242,0);
},
{
name = top;
pos = (242,500);
}
);
layerId = m01;
shapes = (
{
closed = 1;
nodes = (
(462,0,l),
(272,275,l),
(258,295,l),
(115,500,l),
(24,500,l),
(207,237,l),
(221,216,l),
(372,0,l)
);
},
{
closed = 1;
nodes = (
(108,0,l),
(260,219,l),
(205,267,l),
(20,0,l)
);
},
{
closed = 1;
nodes = (
(463,500,l),
(375,500,l),
(218,275,l),
(274,227,l)
);
}
);
width = 483;
},
{
anchors = (
{
name = bottom;
pos = (295,0);
},
{
name = top;
pos = (295,515);
}
);
layerId = m002;
shapes = (
{
closed = 1;
nodes = (
(592,0,l),
(386,311,l),
(332,331,l),
(234,515,l),
(1,515,l),
(203,210,l),
(251,198,l),
(359,0,l)
);
},
{
closed = 1;
nodes = (
(227,0,l),
(354,236,l),
(177,285,l),
(-3,0,l)
);
},
{
closed = 1;
nodes = (
(593,515,l),
(362,515,l),
(231,273,l),
(408,224,l)
);
}
);
width = 590;
}
);
unicode = 120;
},
{
glyphname = y;
kernLeft = y2;
kernRight = y;
lastChange = "2026-01-21 03:34:39 +0000";
layers = (
{
anchors = (
{
name = bottom;
pos = (262,0);
},
{
name = top;
pos = (262,500);
}
);
layerId = m01;
shapes = (
{
closed = 1;
nodes = (
(204,-209,o),
(235,-177,o),
(258,-117,cs),
(498,500,l),
(413,500,l),
(252,77,l),
(240,47,l),
(193,-81,ls),
(179,-118,o),
(162,-137,o),
(121,-137,cs),
(66,-137,l),
(66,-201,l),
(87,-207,o),
(121,-209,o),
(140,-209,cs)
);
},
{
closed = 1;
nodes = (
(297,22,l),
(110,500,l),
(25,500,l),
(228,-11,l)
);
}
);
width = 523;
},
{
anchors = (
{
name = bottom;
pos = (289,0);
},
{
name = top;
pos = (289,515);
}
);
layerId = m002;
shapes = (
{
closed = 1;
nodes = (
(261,-209,o),
(323,-162,o),
(353,-82,cs),
(576,515,l),
(356,515,l),
(225,79,l),
(199,48,l),
(172,-18,ls),
(164,-37,o),
(149,-48,o),
(131,-48,cs),
(64,-48,l),
(64,-200,l),
(89,-206,o),
(128,-209,o),
(172,-209,cs)
);
},
{
closed = 1;
nodes = (
(376,23,l),
(217,515,l),
(-2,515,l),
(197,-11,l)
);
}
);
width = 574;
}
);
unicode = 121;
},
{
glyphname = z;
kernLeft = z2;
kernRight = z;
lastChange = "2026-01-21 03:35:41 +0000";
layers = (
{
anchors = (
{
name = bottom;
pos = (230,0);
},
{
name = center;
pos = (230,250);
},
{
name = top;
pos = (230,500);
}
);
layerId = m01;
shapes = (
{
closed = 1;
nodes = (
(415,0,l),
(415,72,l),
(93,72,l),
(110,36,l),
(415,428,l),
(415,500,l),
(45,500,l),
(45,428,l),
(367,428,l),
(350,464,l),
(45,72,l),
(45,0,l)
);
}
);
width = 460;
},
{
anchors = (
{
name = bottom;
pos = (239,0);
},
{
name = center;
pos = (239,258);
},
{
name = top;
pos = (239,515);
}
);
layerId = m002;
shapes = (
{
closed = 1;
nodes = (
(462,0,l),
(462,160,l),
(171,160,l),
(188,78,l),
(462,361,l),
(462,515,l),
(10,515,l),
(10,356,l),
(413,356,l),
(285,438,l),
(10,155,l),
(10,0,l)
);
}
);
width = 472;
}
);
unicode = 122;
},
{
glyphname = ordfeminine;
lastChange = "2026-01-19 15:34:25 +0000";
layers = (
{
layerId = m01;
shapes = (
{
closed = 1;
nodes = (
(324,366,l),
(318,421,l),
(318,602,ls),
(318,664,o),
(266,708,o),
(188,708,cs),
(110,708,o),
(56,663,o),
(56,596,c),
(121,596,l),
(121,632,o),
(149,657,o),
(188,657,cs),
(229,657,o),
(255,635,o),
(255,604,cs),
(255,421,l),
(261,366,l)
);
},
{
closed = 1;
nodes = (
(234,357,o),
(275,411,o),
(275,489,c),
(255,489,l),
(255,440,o),
(221,408,o),
(172,408,cs),
(136,408,o),
(111,426,o),
(111,454,cs),
(111,478,o),
(131,500,o),
(160,505,cs),
(281,528,l),
(281,578,l),
(149,555,ls),
(88,544,o),
(46,503,o),
(46,454,cs),
(46,396,o),
(98,357,o),
(161,357,cs)
);
}
);
width = 373;
},
{
layerId = m002;
shapes = (
{
closed = 1;
nodes = (
(324,366,l),
(318,421,l),
(318,602,ls),
(318,664,o),
(266,708,o),
(188,708,cs),
(110,708,o),
(56,663,o),
(56,596,c),
(121,596,l),
(121,632,o),
(149,657,o),
(188,657,cs),
(229,657,o),
(255,635,o),
(255,604,cs),
(255,421,l),
(261,366,l)
);
},
{
closed = 1;
nodes = (
(234,357,o),
(275,411,o),
(275,489,c),
(255,489,l),
(255,440,o),
(221,408,o),
(172,408,cs),
(136,408,o),
(111,426,o),
(111,454,cs),
(111,478,o),
(131,500,o),
(160,505,cs),
(281,528,l),
(281,578,l),
(149,555,ls),
(88,544,o),
(46,503,o),
(46,454,cs),
(46,396,o),
(98,357,o),
(161,357,cs)
);
}
);
width = 373;
}
);
unicode = 170;
},
{
glyphname = ordmasculine;
lastChange = "2026-01-19 15:34:25 +0000";
layers = (
{
layerId = m01;
shapes = (
{
closed = 1;
nodes = (
(297,354,o),
(363,426,o),
(363,530,cs),
(363,634,o),
(297,706,o),
(202,706,cs),
(106,706,o),
(40,634,o),
(40,530,cs),
(40,426,o),
(106,354,o),
(202,354,cs)
);
},
{
closed = 1;
nodes = (
(144,409,o),
(105,458,o),
(105,530,cs),
(105,601,o),
(144,650,o),
(202,650,cs),
(259,650,o),
(298,601,o),
(298,530,cs),
(298,458,o),
(259,409,o),
(202,409,cs)
);
}
);
width = 403;
},
{
layerId = m002;
shapes = (
{
closed = 1;
nodes = (
(297,354,o),
(363,426,o),
(363,530,cs),
(363,634,o),
(297,706,o),
(202,706,cs),
(106,706,o),
(40,634,o),
(40,530,cs),
(40,426,o),
(106,354,o),
(202,354,cs)
);
},
{
closed = 1;
nodes = (
(144,409,o),
(105,458,o),
(105,530,cs),
(105,601,o),
(144,650,o),
(202,650,cs),
(259,650,o),
(298,601,o),
(298,530,cs),
(298,458,o),
(259,409,o),
(202,409,cs)
);
}
);
width = 403;
}
);
unicode = 186;
},
{
glyphname = zero;
lastChange = "2026-01-21 15:35:06 +0000";
layers = (
{
layerId = m01;
shapes = (
{
closed = 1;
nodes = (
(500,-16,o),
(598,117,o),
(598,350,cs),
(598,583,o),
(500,716,o),
(329,716,cs),
(157,716,o),
(60,583,o),
(60,350,cs),
(60,117,o),
(157,-16,o),
(329,-16,cs)
);
},
{
closed = 1;
nodes = (
(214,62,o),
(148,166,o),
(148,350,cs),
(148,534,o),
(214,638,o),
(329,638,cs),
(443,638,o),
(509,534,o),
(509,350,cs),
(509,166,o),
(443,62,o),
(329,62,cs)
);
}
);
width = 658;
},
{
layerId = m002;
shapes = (
{
closed = 1;
nodes = (
(535,-16,o),
(655,123,o),
(655,350,cs),
(655,577,o),
(535,716,o),
(338,716,cs),
(141,716,o),
(21,577,o),
(21,350,cs),
(21,123,o),
(141,-16,o),
(338,-16,cs)
);
},
{
closed = 1;
nodes = (
(277,154,o),
(240,228,o),
(240,350,cs),
(240,472,o),
(277,546,o),
(338,546,cs),
(399,546,o),
(436,472,o),
(436,350,cs),
(436,228,o),
(399,154,o),
(338,154,cs)
);
}
);
width = 676;
}
);
unicode = 48;
},
{
glyphname = one;
lastChange = "2026-01-21 15:29:22 +0000";
layers = (
{
layerId = m01;
shapes = (
{
closed = 1;
nodes = (
(318,0,l),
(318,700,l),
(257,700,l),
(246,616,o),
(211,584,o),
(96,573,cs),
(45,569,l),
(45,507,l),
(232,507,l),
(232,0,l)
);
}
);
width = 423;
},
{
layerId = m002;
shapes = (
{
closed = 1;
nodes = (
(372,0,l),
(372,700,l),
(193,700,l),
(174,620,o),
(136,586,o),
(58,579,cs),
(12,575,l),
(12,410,l),
(149,410,l),
(149,0,l)
);
}
);
width = 414;
}
);
unicode = 49;
},
{
glyphname = two;
lastChange = "2026-01-21 15:30:32 +0000";
layers = (
{
layerId = m01;
shapes = (
{
closed = 1;
nodes = (
(507,0,l),
(507,76,l),
(124,76,l),
(136,46,l),
(361,249,ls),
(450,329,o),
(508,409,o),
(508,500,cs),
(508,612,o),
(420,716,o),
(278,716,cs),
(145,716,o),
(55,625,o),
(55,494,cs),
(55,475,o),
(57,459,o),
(60,445,c),
(147,445,l),
(144,454,o),
(142,478,o),
(142,495,cs),
(142,586,o),
(199,638,o),
(278,638,cs),
(368,638,o),
(419,572,o),
(419,500,cs),
(419,432,o),
(374,365,o),
(305,302,cs),
(58,76,l),
(58,0,l)
);
}
);
width = 563;
},
{
layerId = m002;
shapes = (
{
closed = 1;
nodes = (
(583,0,l),
(583,170,l),
(160,170,l),
(242,110,l),
(452,270,ls),
(537,335,o),
(595,418,o),
(595,500,cs),
(595,617,o),
(478,716,o),
(314,716,cs),
(143,716,o),
(30,608,o),
(30,474,cs),
(30,456,o),
(32,451,o),
(34,442,c),
(241,442,l),
(240,445,o),
(240,454,o),
(240,465,cs),
(240,517,o),
(269,553,o),
(310,553,cs),
(349,553,o),
(375,524,o),
(375,481,cs),
(375,454,o),
(352,418,o),
(318,392,cs),
(34,170,l),
(34,0,l)
);
}
);
width = 615;
}
);
unicode = 50;
},
{
glyphname = three;
lastChange = "2026-01-21 15:34:06 +0000";
layers = (
{
layerId = m01;
shapes = (
{
closed = 1;
nodes = (
(432,-16,o),
(528,78,o),
(528,190,cs),
(528,280,o),
(467,341,o),
(377,366,c),
(378,357,l),
(455,381,o),
(508,441,o),
(508,523,cs),
(508,630,o),
(419,715,o),
(293,715,cs),
(174,715,o),
(82,638,o),
(66,527,c),
(148,512,l),
(161,587,o),
(218,638,o),
(293,638,cs),
(367,638,o),
(422,589,o),
(422,516,cs),
(422,446,o),
(371,397,o),
(297,397,cs),
(223,397,l),
(223,321,l),
(297,321,ls),
(384,321,o),
(443,268,o),
(443,193,cs),
(443,114,o),
(378,62,o),
(293,62,cs),
(205,62,o),
(141,117,o),
(128,197,c),
(45,185,l),
(62,66,o),
(163,-16,o),
(293,-16,cs)
);
}
);
width = 583;
},
{
layerId = m002;
shapes = (
{
closed = 1;
nodes = (
(485,-16,o),
(601,84,o),
(601,200,cs),
(601,284,o),
(544,339,o),
(460,366,c),
(461,357,l),
(536,384,o),
(588,448,o),
(588,523,cs),
(588,633,o),
(472,715,o),
(322,715,cs),
(172,715,o),
(63,634,o),
(36,517,c),
(235,472,l),
(239,521,o),
(268,555,o),
(311,555,cs),
(349,555,o),
(378,532,o),
(378,493,cs),
(378,457,o),
(352,429,o),
(315,429,cs),
(236,429,l),
(236,289,l),
(315,289,ls),
(361,289,o),
(392,258,o),
(392,219,cs),
(392,169,o),
(354,141,o),
(311,141,cs),
(253,141,o),
(219,180,o),
(214,237,c),
(15,195,l),
(43,70,o),
(165,-16,o),
(322,-16,cs)
);
}
);
width = 626;
}
);
unicode = 51;
},
{
glyphname = four;
lastChange = "2026-01-21 15:31:32 +0000";
layers = (
{
layerId = m01;
shapes = (
{
closed = 1;
nodes = (
(564,188,l),
(564,264,l),
(88,264,l),
(103,222,l),
(433,700,l),
(348,700,l),
(35,247,l),
(35,188,l)
);
},
{
closed = 1;
nodes = (
(460,0,l),
(460,700,l),
(373,700,l),
(373,0,l)
);
}
);
width = 594;
},
{
layerId = m002;
shapes = (
{
closed = 1;
nodes = (
(655,148,l),
(655,324,l),
(68,324,l),
(178,282,l),
(488,700,l),
(308,700,l),
(15,307,l),
(15,148,l)
);
},
{
closed = 1;
nodes = (
(556,0,l),
(556,700,l),
(339,700,l),
(339,0,l)
);
}
);
width = 675;
}
);
unicode = 52;
},
{
glyphname = five;
lastChange = "2026-01-21 15:34:34 +0000";
layers = (
{
layerId = m01;
shapes = (
{
closed = 1;
nodes = (
(433,-16,o),
(535,82,o),
(535,229,cs),
(535,372,o),
(438,474,o),
(306,474,cs),
(225,474,o),
(159,435,o),
(133,380,c),
(151,372,l),
(191,669,l),
(140,624,l),
(501,624,l),
(501,700,l),
(119,700,l),
(69,323,l),
(146,313,l),
(171,363,o),
(219,396,o),
(286,396,cs),
(375,396,o),
(452,334,o),
(452,229,cs),
(452,136,o),
(390,62,o),
(292,62,cs),
(216,62,o),
(148,105,o),
(129,171,c),
(50,149,l),
(82,52,o),
(176,-16,o),
(292,-16,cs)
);
}
);
width = 585;
},
{
layerId = m002;
shapes = (
{
closed = 1;
nodes = (
(482,-16,o),
(595,89,o),
(595,239,cs),
(595,385,o),
(489,484,o),
(364,484,cs),
(283,484,o),
(221,442,o),
(181,382,c),
(224,354,l),
(260,635,l),
(131,535,l),
(559,535,l),
(559,700,l),
(101,700,l),
(44,332,l),
(215,290,l),
(227,323,o),
(258,346,o),
(296,346,cs),
(345,346,o),
(382,307,o),
(382,246,cs),
(382,191,o),
(351,150,o),
(300,150,cs),
(255,150,o),
(218,181,o),
(213,226,c),
(15,185,l),
(36,66,o),
(159,-16,o),
(311,-16,cs)
);
}
);
width = 616;
}
);
unicode = 53;
},
{
glyphname = six;
lastChange = "2026-01-21 15:32:54 +0000";
layers = (
{
layerId = m01;
shapes = (
{
closed = 1;
nodes = (
(451,-16,o),
(555,75,o),
(555,217,cs),
(555,352,o),
(462,452,o),
(321,452,cs),
(195,452,o),
(105,373,o),
(105,257,c),
(139,299,l),
(139,364,ls),
(139,527,o),
(225,639,o),
(341,639,cs),
(416,639,o),
(474,593,o),
(492,527,c),
(432,533,l),
(584,639,l),
(568,567,l),
(534,655,o),
(445,716,o),
(342,716,cs),
(175,716,o),
(55,555,o),
(55,328,cs),
(55,121,o),
(154,-16,o),
(318,-16,cs)
);
},
{
closed = 1;
nodes = (
(222,62,o),
(153,125,o),
(153,219,cs),
(153,310,o),
(217,374,o),
(312,374,cs),
(405,374,o),
(470,313,o),
(470,219,cs),
(470,128,o),
(409,62,o),
(314,62,cs)
);
}
);
width = 610;
},
{
layerId = m002;
shapes = (
{
closed = 1;
nodes = (
(499,-16,o),
(613,83,o),
(613,229,cs),
(613,367,o),
(510,463,o),
(377,463,cs),
(252,463,o),
(178,378,o),
(178,255,c),
(221,299,l),
(221,350,ls),
(221,468,o),
(274,549,o),
(360,549,cs),
(418,549,o),
(470,512,o),
(478,457,c),
(436,468,l),
(636,639,l),
(613,588,l),
(582,664,o),
(467,716,o),
(353,716,cs),
(147,716,o),
(21,545,o),
(21,328,cs),
(21,111,o),
(148,-16,o),
(334,-16,cs)
);
},
{
closed = 1;
nodes = (
(271,144,o),
(240,182,o),
(240,233,cs),
(240,285,o),
(273,318,o),
(320,318,cs),
(368,318,o),
(401,284,o),
(401,233,cs),
(401,181,o),
(367,144,o),
(319,144,cs)
);
}
);
width = 635;
}
);
unicode = 54;
},
{
glyphname = seven;
lastChange = "2026-01-21 15:33:32 +0000";
layers = (
{
layerId = m01;
shapes = (
{
closed = 1;
nodes = (
(214,0,l),
(509,640,l),
(509,700,l),
(30,700,l),
(30,624,l),
(454,624,l),
(437,664,l),
(124,0,l)
);
}
);
width = 539;
},
{
layerId = m002;
shapes = (
{
closed = 1;
nodes = (
(288,0,l),
(554,565,l),
(554,700,l),
(15,700,l),
(15,515,l),
(379,515,l),
(342,619,l),
(48,0,l)
);
}
);
width = 569;
}
);
unicode = 55;
},
{
glyphname = eight;
lastChange = "2026-01-21 15:34:48 +0000";
layers = (
{
layerId = m01;
shapes = (
{
closed = 1;
nodes = (
(437,-16,o),
(538,77,o),
(538,190,cs),
(538,304,o),
(436,377,o),
(297,377,cs),
(157,377,o),
(55,303,o),
(55,190,cs),
(55,76,o),
(158,-16,o),
(297,-16,cs)
);
},
{
closed = 1;
nodes = (
(206,62,o),
(138,118,o),
(138,193,cs),
(138,268,o),
(206,321,o),
(297,321,cs),
(389,321,o),
(455,268,o),
(455,193,cs),
(455,118,o),
(389,62,o),
(297,62,cs)
);
},
{
closed = 1;
nodes = (
(217,398,o),
(158,447,o),
(158,516,cs),
(158,586,o),
(217,638,o),
(297,638,cs),
(377,638,o),
(435,586,o),
(435,516,cs),
(435,447,o),
(377,398,o),
(297,398,cs)
);
},
{
closed = 1;
nodes = (
(425,342,o),
(518,415,o),
(518,523,cs),
(518,631,o),
(425,715,o),
(297,715,cs),
(169,715,o),
(75,631,o),
(75,523,cs),
(75,415,o),
(169,342,o),
(297,342,cs)
);
}
);
width = 593;
},
{
layerId = m002;
shapes = (
{
closed = 1;
nodes = (
(486,-16,o),
(600,65,o),
(600,190,cs),
(600,313,o),
(486,392,o),
(310,392,cs),
(134,392,o),
(20,313,o),
(20,190,cs),
(20,65,o),
(134,-16,o),
(310,-16,cs)
);
},
{
closed = 1;
nodes = (
(261,144,o),
(230,172,o),
(230,216,cs),
(230,259,o),
(261,287,o),
(310,287,cs),
(359,287,o),
(390,259,o),
(390,216,cs),
(390,172,o),
(359,144,o),
(310,144,cs)
);
},
{
closed = 1;
nodes = (
(267,432,o),
(240,458,o),
(240,498,cs),
(240,536,o),
(268,560,o),
(310,560,cs),
(352,560,o),
(380,536,o),
(380,498,cs),
(380,458,o),
(353,432,o),
(310,432,cs)
);
},
{
closed = 1;
nodes = (
(474,327,o),
(580,404,o),
(580,523,cs),
(580,640,o),
(474,715,o),
(310,715,cs),
(146,715,o),
(40,640,o),
(40,523,cs),
(40,404,o),
(146,327,o),
(310,327,cs)
);
}
);
width = 620;
}
);
unicode = 56;
},
{
glyphname = period;
lastChange = "2026-01-21 15:40:31 +0000";
layers = (
{
layerId = m01;
shapes = (
{
closed = 1;
nodes = (
(157,0,l),
(157,97,l),
(61,97,l),
(61,0,l)
);
}
);
width = 218;
},
{
layerId = m002;
shapes = (
{
closed = 1;
nodes = (
(225,0,l),
(225,200,l),
(25,200,l),
(25,0,l)
);
}
);
width = 250;
}
);
unicode = 46;
},
{
glyphname = comma;
lastChange = "2026-01-21 15:41:59 +0000";
layers = (
{
layerId = m01;
shapes = (
{
closed = 1;
nodes = (
(82,-172,l),
(170,91,l),
(83,91,l),
(26,-172,l)
);
}
);
width = 230;
},
{
layerId = m002;
shapes = (
{
closed = 1;
nodes = (
(176,-172,l),
(254,200,l),
(57,200,l),
(10,-172,l)
);
}
);
width = 264;
}
);
unicode = 44;
},
{
glyphname = exclam;
lastChange = "2026-01-19 15:34:25 +0000";
layers = (
{
layerId = m01;
shapes = (
{
closed = 1;
nodes = (
(132,187,l),
(151,415,l),
(151,700,l),
(66,700,l),
(66,415,l),
(85,187,l)
);
},
{
closed = 1;
nodes = (
(156,0,l),
(156,97,l),
(60,97,l),
(60,0,l)
);
}
);
width = 216;
},
{
layerId = m002;
shapes = (
{
closed = 1;
nodes = (
(132,187,l),
(151,415,l),
(151,700,l),
(66,700,l),
(66,415,l),
(85,187,l)
);
},
{
closed = 1;
nodes = (
(156,0,l),
(156,97,l),
(60,97,l),
(60,0,l)
);
}
);
width = 216;
}
);
unicode = 33;
},
{
glyphname = question;
lastChange = "2026-01-19 15:34:25 +0000";
layers = (
{
layerId = m01;
shapes = (
{
closed = 1;
nodes = (
(268,187,l),
(268,256,ls),
(268,288,o),
(286,316,o),
(320,335,cs),
(367,361,ls),
(431,396,o),
(472,450,o),
(472,526,cs),
(472,630,o),
(394,715,o),
(267,715,cs),
(145,715,o),
(53,637,o),
(40,517,c),
(120,502,l),
(132,586,o),
(192,640,o),
(267,640,cs),
(342,640,o),
(388,586,o),
(388,526,cs),
(388,480,o),
(361,447,o),
(318,423,cs),
(262,392,ls),
(211,363,o),
(184,318,o),
(184,264,cs),
(184,187,l)
);
},
{
closed = 1;
nodes = (
(274,0,l),
(274,97,l),
(178,97,l),
(178,0,l)
);
}
);
width = 522;
},
{
layerId = m002;
shapes = (
{
closed = 1;
nodes = (
(268,187,l),
(268,256,ls),
(268,288,o),
(286,316,o),
(320,335,cs),
(367,361,ls),
(431,396,o),
(472,450,o),
(472,526,cs),
(472,630,o),
(394,715,o),
(267,715,cs),
(145,715,o),
(53,637,o),
(40,517,c),
(120,502,l),
(132,586,o),
(192,640,o),
(267,640,cs),
(342,640,o),
(388,586,o),
(388,526,cs),
(388,480,o),
(361,447,o),
(318,423,cs),
(262,392,ls),
(211,363,o),
(184,318,o),
(184,264,cs),
(184,187,l)
);
},
{
closed = 1;
nodes = (
(274,0,l),
(274,97,l),
(178,97,l),
(178,0,l)
);
}
);
width = 522;
}
);
unicode = 63;
},
{
glyphname = bullet;
lastChange = "2026-01-19 15:34:25 +0000";
layers = (
{
layerId = m01;
shapes = (
{
closed = 1;
nodes = (
(220,244,o),
(267,291,o),
(267,350,cs),
(267,409,o),
(220,456,o),
(161,456,cs),
(102,456,o),
(55,409,o),
(55,350,cs),
(55,291,o),
(102,244,o),
(161,244,cs)
);
}
);
width = 322;
},
{
layerId = m002;
shapes = (
{
closed = 1;
nodes = (
(220,244,o),
(267,291,o),
(267,350,cs),
(267,409,o),
(220,456,o),
(161,456,cs),
(102,456,o),
(55,409,o),
(55,350,cs),
(55,291,o),
(102,244,o),
(161,244,cs)
);
}
);
width = 322;
}
);
unicode = 8226;
},
{
glyphname = asterisk;
lastChange = "2026-01-19 15:34:25 +0000";
layers = (
{
layerId = m01;
shapes = (
{
closed = 1;
nodes = (
(260,335,l),
(255,473,l),
(371,398,l),
(402,453,l),
(280,517,l),
(402,581,l),
(371,637,l),
(255,562,l),
(260,700,l),
(197,700,l),
(202,562,l),
(86,637,l),
(55,581,l),
(177,517,l),
(55,453,l),
(86,398,l),
(202,473,l),
(197,335,l)
);
}
);
width = 457;
},
{
layerId = m002;
shapes = (
{
closed = 1;
nodes = (
(260,335,l),
(255,473,l),
(371,398,l),
(402,453,l),
(280,517,l),
(402,581,l),
(371,637,l),
(255,562,l),
(260,700,l),
(197,700,l),
(202,562,l),
(86,637,l),
(55,581,l),
(177,517,l),
(55,453,l),
(86,398,l),
(202,473,l),
(197,335,l)
);
}
);
width = 457;
}
);
unicode = 42;
},
{
glyphname = numbersign;
lastChange = "2026-01-19 15:34:25 +0000";
layers = (
{
layerId = m01;
shapes = (
{
closed = 1;
nodes = (
(381,0,l),
(591,700,l),
(509,700,l),
(299,0,l)
);
},
{
closed = 1;
nodes = (
(559,184,l),
(559,255,l),
(45,255,l),
(45,184,l)
);
},
{
closed = 1;
nodes = (
(151,0,l),
(361,700,l),
(279,700,l),
(69,0,l)
);
},
{
closed = 1;
nodes = (
(609,424,l),
(609,495,l),
(95,495,l),
(95,424,l)
);
}
);
width = 654;
},
{
layerId = m002;
shapes = (
{
closed = 1;
nodes = (
(381,0,l),
(591,700,l),
(509,700,l),
(299,0,l)
);
},
{
closed = 1;
nodes = (
(559,184,l),
(559,255,l),
(45,255,l),
(45,184,l)
);
},
{
closed = 1;
nodes = (
(151,0,l),
(361,700,l),
(279,700,l),
(69,0,l)
);
},
{
closed = 1;
nodes = (
(609,424,l),
(609,495,l),
(95,495,l),
(95,424,l)
);
}
);
width = 654;
}
);
unicode = 35;
},
{
glyphname = slash;
lastChange = "2026-01-19 15:34:25 +0000";
layers = (
{
layerId = m01;
shapes = (
{
closed = 1;
nodes = (
(95,-100,l),
(435,750,l),
(350,750,l),
(10,-100,l)
);
}
);
width = 445;
},
{
layerId = m002;
shapes = (
{
closed = 1;
nodes = (
(95,-100,l),
(435,750,l),
(350,750,l),
(10,-100,l)
);
}
);
width = 445;
}
);
unicode = 47;
},
{
glyphname = hyphen;
lastChange = "2026-01-19 15:34:25 +0000";
layers = (
{
layerId = m01;
shapes = (
{
closed = 1;
nodes = (
(317,254,l),
(317,325,l),
(50,325,l),
(50,254,l)
);
}
);
width = 367;
},
{
layerId = m002;
shapes = (
{
closed = 1;
nodes = (
(317,254,l),
(317,325,l),
(50,325,l),
(50,254,l)
);
}
);
width = 367;
}
);
unicode = 45;
},
{
glyphname = endash;
lastChange = "2026-01-19 15:34:25 +0000";
layers = (
{
layerId = m01;
shapes = (
{
closed = 1;
nodes = (
(457,254,l),
(457,325,l),
(50,325,l),
(50,254,l)
);
}
);
width = 507;
},
{
layerId = m002;
shapes = (
{
closed = 1;
nodes = (
(457,254,l),
(457,325,l),
(50,325,l),
(50,254,l)
);
}
);
width = 507;
}
);
unicode = 8211;
},
{
glyphname = emdash;
lastChange = "2026-01-19 15:34:25 +0000";
layers = (
{
layerId = m01;
shapes = (
{
closed = 1;
nodes = (
(587,254,l),
(587,325,l),
(50,325,l),
(50,254,l)
);
}
);
width = 637;
},
{
layerId = m002;
shapes = (
{
closed = 1;
nodes = (
(587,254,l),
(587,325,l),
(50,325,l),
(50,254,l)
);
}
);
width = 637;
}
);
unicode = 8212;
},
{
glyphname = underscore;
lastChange = "2026-01-19 15:34:25 +0000";
layers = (
{
layerId = m01;
shapes = (
{
closed = 1;
nodes = (
(427,-111,l),
(427,-40,l),
(50,-40,l),
(50,-111,l)
);
}
);
width = 477;
},
{
layerId = m002;
shapes = (
{
closed = 1;
nodes = (
(427,-111,l),
(427,-40,l),
(50,-40,l),
(50,-111,l)
);
}
);
width = 477;
}
);
unicode = 95;
},
{
glyphname = parenleft;
lastChange = "2026-01-19 15:34:25 +0000";
layers = (
{
layerId = m01;
shapes = (
{
closed = 1;
nodes = (
(290,-100,l),
(188,11,o),
(130,165,o),
(130,324,cs),
(130,483,o),
(188,638,o),
(290,750,c),
(205,750,l),
(103,647,o),
(45,492,o),
(45,324,cs),
(45,157,o),
(103,3,o),
(205,-100,c)
);
}
);
width = 300;
},
{
layerId = m002;
shapes = (
{
closed = 1;
nodes = (
(290,-100,l),
(188,11,o),
(130,165,o),
(130,324,cs),
(130,483,o),
(188,638,o),
(290,750,c),
(205,750,l),
(103,647,o),
(45,492,o),
(45,324,cs),
(45,157,o),
(103,3,o),
(205,-100,c)
);
}
);
width = 300;
}
);
unicode = 40;
},
{
glyphname = braceleft;
lastChange = "2026-01-19 15:34:25 +0000";
layers = (
{
layerId = m01;
shapes = (
{
closed = 1;
nodes = (
(70,312,ls),
(146,312,o),
(187,346,o),
(187,409,cs),
(187,633,ls),
(187,666,o),
(205,684,o),
(238,684,cs),
(293,684,l),
(293,750,l),
(224,750,ls),
(150,750,o),
(110,710,o),
(110,636,cs),
(110,409,ls),
(110,376,o),
(92,358,o),
(59,358,cs),
(20,358,l),
(20,312,l)
);
},
{
closed = 1;
nodes = (
(293,-100,l),
(293,-34,l),
(238,-34,ls),
(205,-34,o),
(187,-16,o),
(187,17,cs),
(187,241,ls),
(187,304,o),
(146,338,o),
(70,338,cs),
(20,338,l),
(20,292,l),
(59,292,ls),
(92,292,o),
(110,274,o),
(110,241,cs),
(110,14,ls),
(110,-60,o),
(150,-100,o),
(224,-100,cs)
);
}
);
width = 308;
},
{
layerId = m002;
shapes = (
{
closed = 1;
nodes = (
(70,312,ls),
(146,312,o),
(187,346,o),
(187,409,cs),
(187,633,ls),
(187,666,o),
(205,684,o),
(238,684,cs),
(293,684,l),
(293,750,l),
(224,750,ls),
(150,750,o),
(110,710,o),
(110,636,cs),
(110,409,ls),
(110,376,o),
(92,358,o),
(59,358,cs),
(20,358,l),
(20,312,l)
);
},
{
closed = 1;
nodes = (
(293,-100,l),
(293,-34,l),
(238,-34,ls),
(205,-34,o),
(187,-16,o),
(187,17,cs),
(187,241,ls),
(187,304,o),
(146,338,o),
(70,338,cs),
(20,338,l),
(20,292,l),
(59,292,ls),
(92,292,o),
(110,274,o),
(110,241,cs),
(110,14,ls),
(110,-60,o),
(150,-100,o),
(224,-100,cs)
);
}
);
width = 308;
}
);
unicode = 123;
},
{
glyphname = bracketleft;
lastChange = "2026-01-19 15:34:25 +0000";
layers = (
{
layerId = m01;
shapes = (
{
closed = 1;
nodes = (
(137,-100,l),
(137,750,l),
(60,750,l),
(60,-100,l)
);
},
{
closed = 1;
nodes = (
(253,-100,l),
(253,-34,l),
(117,-34,l),
(117,-100,l)
);
},
{
closed = 1;
nodes = (
(253,684,l),
(253,750,l),
(117,750,l),
(117,684,l)
);
}
);
width = 268;
},
{
layerId = m002;
shapes = (
{
closed = 1;
nodes = (
(137,-100,l),
(137,750,l),
(60,750,l),
(60,-100,l)
);
},
{
closed = 1;
nodes = (
(253,-100,l),
(253,-34,l),
(117,-34,l),
(117,-100,l)
);
},
{
closed = 1;
nodes = (
(253,684,l),
(253,750,l),
(117,750,l),
(117,684,l)
);
}
);
width = 268;
}
);
unicode = 91;
},
{
glyphname = quotedblleft;
lastChange = "2026-01-19 15:34:25 +0000";
layers = (
{
layerId = m01;
shapes = (
{
closed = 1;
nodes = (
(281,437,l),
(338,700,l),
(282,700,l),
(194,437,l)
);
},
{
closed = 1;
nodes = (
(111,437,l),
(168,700,l),
(112,700,l),
(24,437,l)
);
}
);
width = 383;
},
{
layerId = m002;
shapes = (
{
closed = 1;
nodes = (
(281,437,l),
(338,700,l),
(282,700,l),
(194,437,l)
);
},
{
closed = 1;
nodes = (
(111,437,l),
(168,700,l),
(112,700,l),
(24,437,l)
);
}
);
width = 383;
}
);
unicode = 8220;
},
{
glyphname = quotedblright;
lastChange = "2026-01-19 15:34:25 +0000";
layers = (
{
layerId = m01;
shapes = (
{
closed = 1;
nodes = (
(271,437,l),
(359,700,l),
(272,700,l),
(215,437,l)
);
},
{
closed = 1;
nodes = (
(101,437,l),
(189,700,l),
(102,700,l),
(45,437,l)
);
}
);
width = 383;
},
{
layerId = m002;
shapes = (
{
closed = 1;
nodes = (
(271,437,l),
(359,700,l),
(272,700,l),
(215,437,l)
);
},
{
closed = 1;
nodes = (
(101,437,l),
(189,700,l),
(102,700,l),
(45,437,l)
);
}
);
width = 383;
}
);
unicode = 8221;
},
{
glyphname = quoteleft;
lastChange = "2026-01-19 15:34:25 +0000";
layers = (
{
layerId = m01;
shapes = (
{
closed = 1;
nodes = (
(111,437,l),
(168,700,l),
(112,700,l),
(24,437,l)
);
}
);
width = 213;
},
{
layerId = m002;
shapes = (
{
closed = 1;
nodes = (
(111,437,l),
(168,700,l),
(112,700,l),
(24,437,l)
);
}
);
width = 213;
}
);
unicode = 8216;
},
{
glyphname = quoteright;
lastChange = "2026-01-19 15:34:25 +0000";
layers = (
{
layerId = m01;
shapes = (
{
closed = 1;
nodes = (
(101,437,l),
(189,700,l),
(102,700,l),
(45,437,l)
);
}
);
width = 214;
},
{
layerId = m002;
shapes = (
{
closed = 1;
nodes = (
(101,437,l),
(189,700,l),
(102,700,l),
(45,437,l)
);
}
);
width = 214;
}
);
unicode = 8217;
},
{
glyphname = guilsinglleft;
lastChange = "2026-01-19 15:34:25 +0000";
layers = (
{
layerId = m01;
shapes = (
{
closed = 1;
nodes = (
(316,50,l),
(143,258,l),
(316,465,l),
(226,465,l),
(50,258,l),
(226,50,l)
);
}
);
width = 356;
},
{
layerId = m002;
shapes = (
{
closed = 1;
nodes = (
(316,50,l),
(143,258,l),
(316,465,l),
(226,465,l),
(50,258,l),
(226,50,l)
);
}
);
width = 356;
}
);
unicode = 8249;
},
{
glyphname = quotedbl;
lastChange = "2026-01-19 15:34:25 +0000";
layers = (
{
layerId = m01;
shapes = (
{
closed = 1;
nodes = (
(272,437,l),
(292,700,l),
(205,700,l),
(225,437,l)
);
},
{
closed = 1;
nodes = (
(112,437,l),
(132,700,l),
(45,700,l),
(65,437,l)
);
}
);
width = 337;
},
{
layerId = m002;
shapes = (
{
closed = 1;
nodes = (
(272,437,l),
(292,700,l),
(205,700,l),
(225,437,l)
);
},
{
closed = 1;
nodes = (
(112,437,l),
(132,700,l),
(45,700,l),
(65,437,l)
);
}
);
width = 337;
}
);
unicode = 34;
},
{
glyphname = quotesingle;
lastChange = "2026-01-19 15:34:25 +0000";
layers = (
{
layerId = m01;
shapes = (
{
closed = 1;
nodes = (
(112,437,l),
(132,700,l),
(45,700,l),
(65,437,l)
);
}
);
width = 177;
},
{
layerId = m002;
shapes = (
{
closed = 1;
nodes = (
(112,437,l),
(132,700,l),
(45,700,l),
(65,437,l)
);
}
);
width = 177;
}
);
unicode = 39;
},
{
glyphname = at;
lastChange = "2026-01-19 15:34:25 +0000";
layers = (
{
layerId = m01;
shapes = (
{
closed = 1;
nodes = (
(506,-113,o),
(584,-87,o),
(631,-49,c),
(597,10,l),
(556,-28,o),
(491,-47,o),
(419,-47,cs),
(248,-47,o),
(119,77,o),
(119,263,cs),
(119,447,o),
(248,573,o),
(419,573,cs),
(598,573,o),
(710,435,o),
(710,273,cs),
(710,178,o),
(674,139,o),
(630,139,cs),
(585,139,o),
(561,175,o),
(561,228,cs),
(561,432,l),
(493,432,l),
(493,228,ls),
(493,141,o),
(544,81,o),
(629,81,cs),
(714,81,o),
(779,138,o),
(779,273,cs),
(779,469,o),
(641,639,o),
(419,639,cs),
(209,639,o),
(50,486,o),
(50,263,cs),
(50,40,o),
(208,-113,o),
(419,-113,cs)
);
},
{
closed = 1;
nodes = (
(468,79,o),
(521,153,o),
(521,262,cs),
(521,369,o),
(470,444,o),
(384,444,cs),
(300,444,o),
(234,371,o),
(234,262,cs),
(234,155,o),
(298,79,o),
(384,79,cs)
);
},
{
closed = 1;
nodes = (
(342,135,o),
(304,188,o),
(304,262,cs),
(304,337,o),
(342,387,o),
(398,387,cs),
(454,387,o),
(493,337,o),
(493,262,cs),
(493,188,o),
(454,135,o),
(398,135,cs)
);
}
);
width = 829;
},
{
layerId = m002;
shapes = (
{
closed = 1;
nodes = (
(506,-113,o),
(584,-87,o),
(631,-49,c),
(597,10,l),
(556,-28,o),
(491,-47,o),
(419,-47,cs),
(248,-47,o),
(119,77,o),
(119,263,cs),
(119,447,o),
(248,573,o),
(419,573,cs),
(598,573,o),
(710,435,o),
(710,273,cs),
(710,178,o),
(674,139,o),
(630,139,cs),
(585,139,o),
(561,175,o),
(561,228,cs),
(561,432,l),
(493,432,l),
(493,228,ls),
(493,141,o),
(544,81,o),
(629,81,cs),
(714,81,o),
(779,138,o),
(779,273,cs),
(779,469,o),
(641,639,o),
(419,639,cs),
(209,639,o),
(50,486,o),
(50,263,cs),
(50,40,o),
(208,-113,o),
(419,-113,cs)
);
},
{
closed = 1;
nodes = (
(468,79,o),
(521,153,o),
(521,262,cs),
(521,369,o),
(470,444,o),
(384,444,cs),
(300,444,o),
(234,371,o),
(234,262,cs),
(234,155,o),
(298,79,o),
(384,79,cs)
);
},
{
closed = 1;
nodes = (
(342,135,o),
(304,188,o),
(304,262,cs),
(304,337,o),
(342,387,o),
(398,387,cs),
(454,387,o),
(493,337,o),
(493,262,cs),
(493,188,o),
(454,135,o),
(398,135,cs)
);
}
);
width = 829;
}
);
unicode = 64;
},
{
glyphname = ampersand;
lastChange = "2026-01-19 15:34:25 +0000";
layers = (
{
layerId = m01;
shapes = (
{
closed = 1;
nodes = (
(467,-10,o),
(594,140,o),
(594,359,c),
(514,359,l),
(514,183,o),
(418,62,o),
(282,62,cs),
(191,62,o),
(132,117,o),
(132,193,cs),
(132,375,o),
(473,380,o),
(473,566,cs),
(473,654,o),
(397,711,o),
(301,711,cs),
(189,711,o),
(123,632,o),
(123,550,cs),
(123,490,o),
(158,430,o),
(210,369,cs),
(525,0,l),
(635,0,l),
(272,419,ls),
(235,462,o),
(206,511,o),
(205,550,cs),
(203,599,o),
(245,639,o),
(303,639,cs),
(355,639,o),
(391,606,o),
(391,558,cs),
(391,409,o),
(50,421,o),
(50,193,cs),
(50,73,o),
(144,-10,o),
(282,-10,cs)
);
}
);
width = 650;
},
{
layerId = m002;
shapes = (
{
closed = 1;
nodes = (
(467,-10,o),
(594,140,o),
(594,359,c),
(514,359,l),
(514,183,o),
(418,62,o),
(282,62,cs),
(191,62,o),
(132,117,o),
(132,193,cs),
(132,375,o),
(473,380,o),
(473,566,cs),
(473,654,o),
(397,711,o),
(301,711,cs),
(189,711,o),
(123,632,o),
(123,550,cs),
(123,490,o),
(158,430,o),
(210,369,cs),
(525,0,l),
(635,0,l),
(272,419,ls),
(235,462,o),
(206,511,o),
(205,550,cs),
(203,599,o),
(245,639,o),
(303,639,cs),
(355,639,o),
(391,606,o),
(391,558,cs),
(391,409,o),
(50,421,o),
(50,193,cs),
(50,73,o),
(144,-10,o),
(282,-10,cs)
);
}
);
width = 650;
}
);
unicode = 38;
},
{
glyphname = paragraph;
lastChange = "2026-01-21 14:23:08 +0000";
layers = (
{
layerId = m01;
shapes = (
{
closed = 1;
nodes = (
(314,619,l),
(443,619,l),
(443,700,l),
(256,700,ls),
(122,700,o),
(30,615,o),
(30,492,cs),
(30,369,o),
(122,284,o),
(256,284,cs),
(314,284,l)
);
},
{
closed = 1;
nodes = (
(480,700,l),
(393,700,l),
(393,0,l),
(480,0,l)
);
}
);
width = 570;
},
{
layerId = m002;
shapes = (
{
closed = 1;
nodes = (
(299,619,l),
(428,619,l),
(428,700,l),
(241,700,ls),
(107,700,o),
(15,615,o),
(15,492,cs),
(15,369,o),
(107,284,o),
(241,284,cs),
(299,284,l)
);
},
{
closed = 1;
nodes = (
(465,700,l),
(378,700,l),
(378,0,l),
(465,0,l)
);
}
);
width = 510;
}
);
metricLeft = "=|P";
metricRight = H;
unicode = 182;
},
{
glyphname = section;
lastChange = "2026-01-19 15:34:25 +0000";
layers = (
{
layerId = m01;
shapes = (
{
closed = 1;
nodes = (
(415,107,o),
(492,186,o),
(492,276,cs),
(492,354,o),
(431,398,o),
(346,439,cs),
(233,494,ls),
(194,513,o),
(166,533,o),
(166,566,cs),
(166,608,o),
(206,644,o),
(269,644,cs),
(330,644,o),
(391,607,o),
(421,548,c),
(374,551,l),
(499,669,l),
(482,595,l),
(440,668,o),
(356,715,o),
(268,715,cs),
(158,715,o),
(87,642,o),
(87,562,cs),
(87,493,o),
(142,456,o),
(219,418,cs),
(323,365,ls),
(374,340,o),
(414,310,o),
(414,268,cs),
(414,199,o),
(367,156,o),
(294,156,c),
(295,107,l)
);
},
{
closed = 1;
nodes = (
(132,452,o),
(55,373,o),
(55,283,cs),
(55,204,o),
(116,161,o),
(201,119,cs),
(314,65,ls),
(352,46,o),
(380,26,o),
(380,-7,cs),
(380,-49,o),
(341,-85,o),
(278,-85,cs),
(217,-85,o),
(156,-48,o),
(126,11,c),
(173,8,l),
(48,-110,l),
(65,-36,l),
(107,-109,o),
(191,-156,o),
(279,-156,cs),
(389,-156,o),
(460,-83,o),
(460,-3,cs),
(460,66,o),
(405,102,o),
(328,141,cs),
(224,194,ls),
(173,219,o),
(133,248,o),
(133,291,cs),
(133,360,o),
(180,403,o),
(253,403,c),
(252,452,l)
);
}
);
width = 547;
},
{
layerId = m002;
shapes = (
{
closed = 1;
nodes = (
(415,107,o),
(492,186,o),
(492,276,cs),
(492,354,o),
(431,398,o),
(346,439,cs),
(233,494,ls),
(194,513,o),
(166,533,o),
(166,566,cs),
(166,608,o),
(206,644,o),
(269,644,cs),
(330,644,o),
(391,607,o),
(421,548,c),
(374,551,l),
(499,669,l),
(482,595,l),
(440,668,o),
(356,715,o),
(268,715,cs),
(158,715,o),
(87,642,o),
(87,562,cs),
(87,493,o),
(142,456,o),
(219,418,cs),
(323,365,ls),
(374,340,o),
(414,310,o),
(414,268,cs),
(414,199,o),
(367,156,o),
(294,156,c),
(295,107,l)
);
},
{
closed = 1;
nodes = (
(132,452,o),
(55,373,o),
(55,283,cs),
(55,204,o),
(116,161,o),
(201,119,cs),
(314,65,ls),
(352,46,o),
(380,26,o),
(380,-7,cs),
(380,-49,o),
(341,-85,o),
(278,-85,cs),
(217,-85,o),
(156,-48,o),
(126,11,c),
(173,8,l),
(48,-110,l),
(65,-36,l),
(107,-109,o),
(191,-156,o),
(279,-156,cs),
(389,-156,o),
(460,-83,o),
(460,-3,cs),
(460,66,o),
(405,102,o),
(328,141,cs),
(224,194,ls),
(173,219,o),
(133,248,o),
(133,291,cs),
(133,360,o),
(180,403,o),
(253,403,c),
(252,452,l)
);
}
);
width = 547;
}
);
metricLeft = eight;
metricRight = eight;
unicode = 167;
},
{
glyphname = copyright;
lastChange = "2026-01-19 15:34:25 +0000";
layers = (
{
layerId = m01;
shapes = (
{
closed = 1;
nodes = (
(633,-16,o),
(789,138,o),
(789,350,cs),
(789,562,o),
(633,716,o),
(419,716,cs),
(206,716,o),
(50,562,o),
(50,350,cs),
(50,138,o),
(206,-16,o),
(419,-16,cs)
);
},
{
closed = 1;
nodes = (
(243,46,o),
(115,174,o),
(115,350,cs),
(115,526,o),
(243,654,o),
(419,654,cs),
(595,654,o),
(724,526,o),
(724,350,cs),
(724,174,o),
(595,46,o),
(419,46,cs)
);
},
{
closed = 1;
nodes = (
(510,159,o),
(577,206,o),
(599,270,c),
(536,288,l),
(524,248,o),
(480,219,o),
(430,219,cs),
(362,219,o),
(310,274,o),
(310,350,cs),
(310,426,o),
(362,481,o),
(430,481,cs),
(480,481,o),
(524,452,o),
(536,412,c),
(599,430,l),
(577,494,o),
(510,541,o),
(430,541,cs),
(326,541,o),
(241,461,o),
(241,350,cs),
(241,239,o),
(326,159,o),
(430,159,cs)
);
}
);
width = 839;
},
{
layerId = m002;
shapes = (
{
closed = 1;
nodes = (
(633,-16,o),
(789,138,o),
(789,350,cs),
(789,562,o),
(633,716,o),
(419,716,cs),
(206,716,o),
(50,562,o),
(50,350,cs),
(50,138,o),
(206,-16,o),
(419,-16,cs)
);
},
{
closed = 1;
nodes = (
(243,46,o),
(115,174,o),
(115,350,cs),
(115,526,o),
(243,654,o),
(419,654,cs),
(595,654,o),
(724,526,o),
(724,350,cs),
(724,174,o),
(595,46,o),
(419,46,cs)
);
},
{
closed = 1;
nodes = (
(510,159,o),
(577,206,o),
(599,270,c),
(536,288,l),
(524,248,o),
(480,219,o),
(430,219,cs),
(362,219,o),
(310,274,o),
(310,350,cs),
(310,426,o),
(362,481,o),
(430,481,cs),
(480,481,o),
(524,452,o),
(536,412,c),
(599,430,l),
(577,494,o),
(510,541,o),
(430,541,cs),
(326,541,o),
(241,461,o),
(241,350,cs),
(241,239,o),
(326,159,o),
(430,159,cs)
);
}
);
width = 839;
}
);
unicode = 169;
},
{
glyphname = registered;
lastChange = "2026-01-19 15:34:25 +0000";
layers = (
{
layerId = m01;
shapes = (
{
closed = 1;
nodes = (
(430,212,o),
(538,319,o),
(538,464,cs),
(538,610,o),
(430,716,o),
(284,716,cs),
(138,716,o),
(30,610,o),
(30,464,cs),
(30,319,o),
(138,212,o),
(284,212,cs)
);
},
{
closed = 1;
nodes = (
(231,331,l),
(231,605,l),
(187,605,l),
(187,331,l)
);
},
{
closed = 1;
nodes = (
(391,331,l),
(305,459,l),
(253,459,l),
(340,331,l)
);
},
{
closed = 1;
nodes = (
(161,252,o),
(70,341,o),
(70,464,cs),
(70,587,o),
(161,677,o),
(284,677,cs),
(407,677,o),
(498,587,o),
(498,464,cs),
(498,341,o),
(407,252,o),
(284,252,cs)
);
},
{
closed = 1;
nodes = (
(301,430,ls),
(354,430,o),
(391,467,o),
(391,517,cs),
(391,569,o),
(354,605,o),
(301,605,cs),
(212,605,l),
(212,563,l),
(301,563,ls),
(327,563,o),
(346,544,o),
(346,518,cs),
(346,492,o),
(327,474,o),
(301,474,cs),
(212,474,l),
(212,430,l)
);
}
);
width = 568;
},
{
layerId = m002;
shapes = (
{
closed = 1;
nodes = (
(430,212,o),
(538,319,o),
(538,464,cs),
(538,610,o),
(430,716,o),
(284,716,cs),
(138,716,o),
(30,610,o),
(30,464,cs),
(30,319,o),
(138,212,o),
(284,212,cs)
);
},
{
closed = 1;
nodes = (
(231,331,l),
(231,605,l),
(187,605,l),
(187,331,l)
);
},
{
closed = 1;
nodes = (
(391,331,l),
(305,459,l),
(253,459,l),
(340,331,l)
);
},
{
closed = 1;
nodes = (
(161,252,o),
(70,341,o),
(70,464,cs),
(70,587,o),
(161,677,o),
(284,677,cs),
(407,677,o),
(498,587,o),
(498,464,cs),
(498,341,o),
(407,252,o),
(284,252,cs)
);
},
{
closed = 1;
nodes = (
(301,430,ls),
(354,430,o),
(391,467,o),
(391,517,cs),
(391,569,o),
(354,605,o),
(301,605,cs),
(212,605,l),
(212,563,l),
(301,563,ls),
(327,563,o),
(346,544,o),
(346,518,cs),
(346,492,o),
(327,474,o),
(301,474,cs),
(212,474,l),
(212,430,l)
);
}
);
width = 568;
}
);
unicode = 174;
},
{
glyphname = trademark;
lastChange = "2026-01-19 15:34:25 +0000";
layers = (
{
layerId = m01;
shapes = (
{
closed = 1;
nodes = (
(354,407,l),
(354,664,l),
(344,664,l),
(427,407,l),
(474,407,l),
(557,664,l),
(548,664,l),
(548,407,l),
(598,407,l),
(598,700,l),
(522,700,l),
(437,437,l),
(465,437,l),
(382,700,l),
(303,700,l),
(303,407,l)
);
},
{
closed = 1;
nodes = (
(162,407,l),
(162,700,l),
(111,700,l),
(111,407,l)
);
},
{
closed = 1;
nodes = (
(252,653,l),
(252,700,l),
(20,700,l),
(20,653,l)
);
}
);
width = 618;
},
{
layerId = m002;
shapes = (
{
closed = 1;
nodes = (
(354,407,l),
(354,664,l),
(344,664,l),
(427,407,l),
(474,407,l),
(557,664,l),
(548,664,l),
(548,407,l),
(598,407,l),
(598,700,l),
(522,700,l),
(437,437,l),
(465,437,l),
(382,700,l),
(303,700,l),
(303,407,l)
);
},
{
closed = 1;
nodes = (
(162,407,l),
(162,700,l),
(111,700,l),
(111,407,l)
);
},
{
closed = 1;
nodes = (
(252,653,l),
(252,700,l),
(20,700,l),
(20,653,l)
);
}
);
width = 618;
}
);
unicode = 8482;
},
{
glyphname = degree;
lastChange = "2026-01-19 15:34:25 +0000";
layers = (
{
layerId = m01;
shapes = (
{
closed = 1;
nodes = (
(254,423,o),
(318,488,o),
(318,568,cs),
(318,647,o),
(254,712,o),
(174,712,cs),
(94,712,o),
(30,647,o),
(30,568,cs),
(30,488,o),
(94,423,o),
(174,423,cs)
);
},
{
closed = 1;
nodes = (
(127,484,o),
(90,521,o),
(90,568,cs),
(90,614,o),
(127,652,o),
(174,652,cs),
(221,652,o),
(258,614,o),
(258,568,cs),
(258,521,o),
(221,484,o),
(174,484,cs)
);
}
);
width = 348;
},
{
layerId = m002;
shapes = (
{
closed = 1;
nodes = (
(254,423,o),
(318,488,o),
(318,568,cs),
(318,647,o),
(254,712,o),
(174,712,cs),
(94,712,o),
(30,647,o),
(30,568,cs),
(30,488,o),
(94,423,o),
(174,423,cs)
);
},
{
closed = 1;
nodes = (
(127,484,o),
(90,521,o),
(90,568,cs),
(90,614,o),
(127,652,o),
(174,652,cs),
(221,652,o),
(258,614,o),
(258,568,cs),
(258,521,o),
(221,484,o),
(174,484,cs)
);
}
);
width = 348;
}
);
unicode = 176;
},
{
glyphname = bar;
lastChange = "2026-01-19 15:34:25 +0000";
layers = (
{
layerId = m01;
shapes = (
{
closed = 1;
nodes = (
(137,-100,l),
(137,750,l),
(60,750,l),
(60,-100,l)
);
}
);
width = 197;
},
{
layerId = m002;
shapes = (
{
closed = 1;
nodes = (
(137,-100,l),
(137,750,l),
(60,750,l),
(60,-100,l)
);
}
);
width = 197;
}
);
unicode = 124;
},
{
glyphname = cent;
lastChange = "2026-01-21 14:23:08 +0000";
layers = (
{
layerId = m01;
shapes = (
{
closed = 1;
nodes = (
(391,84,o),
(473,146,o),
(502,236,c),
(426,259,l),
(409,199,o),
(354,156,o),
(288,156,cs),
(196,156,o),
(133,235,o),
(133,350,cs),
(133,465,o),
(196,544,o),
(288,544,cs),
(354,544,o),
(409,501,o),
(426,441,c),
(502,464,l),
(472,554,o),
(391,616,o),
(288,616,cs),
(152,616,o),
(50,508,o),
(50,350,cs),
(50,192,o),
(151,84,o),
(288,84,cs)
);
},
{
closed = 1;
nodes = (
(317,0,l),
(317,700,l),
(257,700,l),
(257,0,l)
);
}
);
width = 547;
},
{
layerId = m002;
shapes = (
{
closed = 1;
nodes = (
(362,84,o),
(444,146,o),
(473,236,c),
(397,259,l),
(380,199,o),
(325,156,o),
(259,156,cs),
(167,156,o),
(104,235,o),
(104,350,cs),
(104,465,o),
(167,544,o),
(259,544,cs),
(325,544,o),
(380,501,o),
(397,441,c),
(473,464,l),
(443,554,o),
(362,616,o),
(259,616,cs),
(123,616,o),
(21,508,o),
(21,350,cs),
(21,192,o),
(122,84,o),
(259,84,cs)
);
},
{
closed = 1;
nodes = (
(288,0,l),
(288,700,l),
(228,700,l),
(228,0,l)
);
}
);
width = 491;
}
);
metricLeft = c;
metricRight = c;
unicode = 162;
},
{
glyphname = dollar;
lastChange = "2026-01-21 14:23:08 +0000";
layers = (
{
layerId = m01;
shapes = (
{
closed = 1;
nodes = (
(340,-93,l),
(340,787,l),
(280,787,l),
(280,-93,l)
);
},
{
closed = 1;
nodes = (
(461,-13,o),
(553,79,o),
(553,191,cs),
(553,287,o),
(485,349,o),
(379,378,cs),
(253,412,ls),
(194,428,o),
(155,468,o),
(155,521,cs),
(155,590,o),
(221,638,o),
(303,638,cs),
(386,638,o),
(457,590,o),
(503,517,c),
(446,527,l),
(587,646,l),
(577,557,l),
(527,653,o),
(422,715,o),
(304,715,cs),
(163,715,o),
(68,627,o),
(68,515,cs),
(68,423,o),
(132,360,o),
(232,332,cs),
(349,299,ls),
(420,280,o),
(466,246,o),
(466,188,cs),
(466,123,o),
(410,64,o),
(318,64,cs),
(227,64,o),
(139,123,o),
(98,215,c),
(150,194,l),
(-2,84,l),
(23,180,l),
(68,63,o),
(184,-13,o),
(316,-13,cs)
);
}
);
width = 605;
},
{
layerId = m002;
shapes = (
{
closed = 1;
nodes = (
(304,-93,l),
(304,787,l),
(244,787,l),
(244,-93,l)
);
},
{
closed = 1;
nodes = (
(425,-13,o),
(517,79,o),
(517,191,cs),
(517,287,o),
(449,349,o),
(343,378,cs),
(217,412,ls),
(158,428,o),
(119,468,o),
(119,521,cs),
(119,590,o),
(185,638,o),
(267,638,cs),
(350,638,o),
(421,590,o),
(467,517,c),
(410,527,l),
(551,646,l),
(541,557,l),
(491,653,o),
(386,715,o),
(268,715,cs),
(127,715,o),
(32,627,o),
(32,515,cs),
(32,423,o),
(96,360,o),
(196,332,cs),
(313,299,ls),
(384,280,o),
(430,246,o),
(430,188,cs),
(430,123,o),
(374,64,o),
(282,64,cs),
(191,64,o),
(103,123,o),
(62,215,c),
(114,194,l),
(-38,84,l),
(-13,180,l),
(32,63,o),
(148,-13,o),
(280,-13,cs)
);
}
);
width = 533;
}
);
metricLeft = S;
metricRight = S;
unicode = 36;
},
{
glyphname = euro;
lastChange = "2026-01-19 15:34:25 +0000";
layers = (
{
layerId = m01;
shapes = (
{
closed = 1;
nodes = (
(482,-16,o),
(568,64,o),
(600,196,c),
(520,216,l),
(501,119,o),
(442,60,o),
(358,60,cs),
(244,60,o),
(172,169,o),
(172,350,cs),
(172,529,o),
(243,640,o),
(358,640,cs),
(441,640,o),
(501,581,o),
(520,484,c),
(600,504,l),
(568,636,o),
(482,716,o),
(358,716,cs),
(194,716,o),
(86,577,o),
(86,350,cs),
(86,123,o),
(194,-16,o),
(358,-16,cs)
);
},
{
closed = 1;
nodes = (
(397,227,l),
(397,293,l),
(20,293,l),
(20,227,l)
);
},
{
closed = 1;
nodes = (
(397,407,l),
(397,473,l),
(20,473,l),
(20,407,l)
);
}
);
width = 630;
},
{
layerId = m002;
shapes = (
{
closed = 1;
nodes = (
(482,-16,o),
(568,64,o),
(600,196,c),
(520,216,l),
(501,119,o),
(442,60,o),
(358,60,cs),
(244,60,o),
(172,169,o),
(172,350,cs),
(172,529,o),
(243,640,o),
(358,640,cs),
(441,640,o),
(501,581,o),
(520,484,c),
(600,504,l),
(568,636,o),
(482,716,o),
(358,716,cs),
(194,716,o),
(86,577,o),
(86,350,cs),
(86,123,o),
(194,-16,o),
(358,-16,cs)
);
},
{
closed = 1;
nodes = (
(397,227,l),
(397,293,l),
(20,293,l),
(20,227,l)
);
},
{
closed = 1;
nodes = (
(397,407,l),
(397,473,l),
(20,473,l),
(20,407,l)
);
}
);
width = 630;
}
);
unicode = 8364;
},
{
glyphname = sterling;
lastChange = "2026-01-19 15:34:25 +0000";
layers = (
{
layerId = m01;
shapes = (
{
closed = 1;
nodes = (
(589,0,l),
(589,76,l),
(105,76,l),
(112,43,l),
(184,62,o),
(234,117,o),
(234,177,cs),
(234,500,l),
(234,583,o),
(290,640,o),
(367,640,cs),
(445,640,o),
(495,581,o),
(495,495,c),
(580,495,l),
(580,626,o),
(496,716,o),
(367,716,cs),
(240,716,o),
(147,628,o),
(147,500,c),
(147,193,ls),
(147,144,o),
(112,97,o),
(60,76,c),
(60,0,l)
);
},
{
closed = 1;
nodes = (
(473,292,l),
(473,365,l),
(66,365,l),
(66,292,l)
);
}
);
width = 649;
},
{
layerId = m002;
shapes = (
{
closed = 1;
nodes = (
(589,0,l),
(589,76,l),
(105,76,l),
(112,43,l),
(184,62,o),
(234,117,o),
(234,177,cs),
(234,500,l),
(234,583,o),
(290,640,o),
(367,640,cs),
(445,640,o),
(495,581,o),
(495,495,c),
(580,495,l),
(580,626,o),
(496,716,o),
(367,716,cs),
(240,716,o),
(147,628,o),
(147,500,c),
(147,193,ls),
(147,144,o),
(112,97,o),
(60,76,c),
(60,0,l)
);
},
{
closed = 1;
nodes = (
(473,292,l),
(473,365,l),
(66,365,l),
(66,292,l)
);
}
);
width = 649;
}
);
unicode = 163;
},
{
glyphname = yen;
lastChange = "2026-01-19 15:34:25 +0000";
layers = (
{
layerId = m01;
shapes = (
{
closed = 1;
nodes = (
(307,243,l),
(580,700,l),
(487,700,l),
(286,358,l),
(310,358,l),
(108,700,l),
(15,700,l),
(289,243,l)
);
},
{
closed = 1;
nodes = (
(501,119,l),
(501,185,l),
(94,185,l),
(94,119,l)
);
},
{
closed = 1;
nodes = (
(341,0,l),
(341,332,l),
(255,332,l),
(255,0,l)
);
},
{
closed = 1;
nodes = (
(501,279,l),
(501,345,l),
(94,345,l),
(94,279,l)
);
}
);
width = 595;
},
{
layerId = m002;
shapes = (
{
closed = 1;
nodes = (
(307,243,l),
(580,700,l),
(487,700,l),
(286,358,l),
(310,358,l),
(108,700,l),
(15,700,l),
(289,243,l)
);
},
{
closed = 1;
nodes = (
(501,119,l),
(501,185,l),
(94,185,l),
(94,119,l)
);
},
{
closed = 1;
nodes = (
(341,0,l),
(341,332,l),
(255,332,l),
(255,0,l)
);
},
{
closed = 1;
nodes = (
(501,279,l),
(501,345,l),
(94,345,l),
(94,279,l)
);
}
);
width = 595;
}
);
metricLeft = Y;
metricRight = Y;
unicode = 165;
},
{
glyphname = plus;
lastChange = "2026-01-19 15:34:25 +0000";
layers = (
{
layerId = m01;
shapes = (
{
closed = 1;
nodes = (
(289,76,l),
(289,483,l),
(218,483,l),
(218,76,l)
);
},
{
closed = 1;
nodes = (
(457,244,l),
(457,315,l),
(50,315,l),
(50,244,l)
);
}
);
width = 507;
},
{
layerId = m002;
shapes = (
{
closed = 1;
nodes = (
(289,76,l),
(289,483,l),
(218,483,l),
(218,76,l)
);
},
{
closed = 1;
nodes = (
(457,244,l),
(457,315,l),
(50,315,l),
(50,244,l)
);
}
);
width = 507;
}
);
unicode = 43;
},
{
glyphname = minus;
lastChange = "2026-01-19 15:34:25 +0000";
layers = (
{
layerId = m01;
shapes = (
{
closed = 1;
nodes = (
(457,244,l),
(457,315,l),
(50,315,l),
(50,244,l)
);
}
);
width = 507;
},
{
layerId = m002;
shapes = (
{
closed = 1;
nodes = (
(457,244,l),
(457,315,l),
(50,315,l),
(50,244,l)
);
}
);
width = 507;
}
);
unicode = 8722;
},
{
glyphname = multiply;
lastChange = "2026-01-19 15:34:25 +0000";
layers = (
{
layerId = m01;
shapes = (
{
closed = 1;
nodes = (
(55,137,l),
(391,473,l),
(442,422,l),
(106,86,l)
);
},
{
closed = 1;
nodes = (
(55,422,l),
(106,473,l),
(442,137,l),
(391,86,l)
);
}
);
width = 497;
},
{
layerId = m002;
shapes = (
{
closed = 1;
nodes = (
(55,137,l),
(391,473,l),
(442,422,l),
(106,86,l)
);
},
{
closed = 1;
nodes = (
(55,422,l),
(106,473,l),
(442,137,l),
(391,86,l)
);
}
);
width = 497;
}
);
unicode = 215;
},
{
glyphname = divide;
lastChange = "2026-01-19 15:34:25 +0000";
layers = (
{
layerId = m01;
shapes = (
{
closed = 1;
nodes = (
(457,244,l),
(457,315,l),
(50,315,l),
(50,244,l)
);
},
{
closed = 1;
nodes = (
(302,62,l),
(302,159,l),
(206,159,l),
(206,62,l)
);
},
{
closed = 1;
nodes = (
(302,400,l),
(302,497,l),
(206,497,l),
(206,400,l)
);
}
);
width = 507;
},
{
layerId = m002;
shapes = (
{
closed = 1;
nodes = (
(457,244,l),
(457,315,l),
(50,315,l),
(50,244,l)
);
},
{
closed = 1;
nodes = (
(302,62,l),
(302,159,l),
(206,159,l),
(206,62,l)
);
},
{
closed = 1;
nodes = (
(302,400,l),
(302,497,l),
(206,497,l),
(206,400,l)
);
}
);
width = 507;
}
);
unicode = 247;
},
{
glyphname = equal;
lastChange = "2026-01-19 15:34:25 +0000";
layers = (
{
layerId = m01;
shapes = (
{
closed = 1;
nodes = (
(457,344,l),
(457,415,l),
(50,415,l),
(50,344,l)
);
},
{
closed = 1;
nodes = (
(457,144,l),
(457,215,l),
(50,215,l),
(50,144,l)
);
}
);
width = 507;
},
{
layerId = m002;
shapes = (
{
closed = 1;
nodes = (
(457,344,l),
(457,415,l),
(50,415,l),
(50,344,l)
);
},
{
closed = 1;
nodes = (
(457,144,l),
(457,215,l),
(50,215,l),
(50,144,l)
);
}
);
width = 507;
}
);
unicode = 61;
},
{
glyphname = greater;
lastChange = "2026-01-19 15:34:25 +0000";
layers = (
{
layerId = m01;
shapes = (
{
closed = 1;
nodes = (
(427,234,l),
(427,315,l),
(60,485,l),
(60,402,l),
(392,258,l),
(392,291,l),
(60,147,l),
(60,64,l)
);
}
);
width = 467;
},
{
layerId = m002;
shapes = (
{
closed = 1;
nodes = (
(427,234,l),
(427,315,l),
(60,485,l),
(60,402,l),
(392,258,l),
(392,291,l),
(60,147,l),
(60,64,l)
);
}
);
width = 467;
}
);
unicode = 62;
},
{
glyphname = asciitilde;
lastChange = "2026-01-19 15:34:25 +0000";
layers = (
{
layerId = m01;
shapes = (
{
closed = 1;
nodes = (
(114,213,l),
(114,259,o),
(138,290,o),
(177,290,cs),
(238,290,o),
(265,213,o),
(356,213,cs),
(439,213,o),
(496,273,o),
(496,361,c),
(421,361,l),
(421,315,o),
(398,284,o),
(359,284,cs),
(298,284,o),
(270,360,o),
(179,360,cs),
(96,360,o),
(40,300,o),
(40,213,c)
);
}
);
width = 536;
},
{
layerId = m002;
shapes = (
{
closed = 1;
nodes = (
(114,213,l),
(114,259,o),
(138,290,o),
(177,290,cs),
(238,290,o),
(265,213,o),
(356,213,cs),
(439,213,o),
(496,273,o),
(496,361,c),
(421,361,l),
(421,315,o),
(398,284,o),
(359,284,cs),
(298,284,o),
(270,360,o),
(179,360,cs),
(96,360,o),
(40,300,o),
(40,213,c)
);
}
);
width = 536;
}
);
unicode = 126;
},
{
glyphname = asciicircum;
lastChange = "2026-01-19 15:34:25 +0000";
layers = (
{
layerId = m01;
shapes = (
{
closed = 1;
nodes = (
(105,416,l),
(233,673,l),
(195,673,l),
(323,416,l),
(403,416,l),
(253,700,l),
(175,700,l),
(25,416,l)
);
}
);
width = 428;
},
{
layerId = m002;
shapes = (
{
closed = 1;
nodes = (
(105,416,l),
(233,673,l),
(195,673,l),
(323,416,l),
(403,416,l),
(253,700,l),
(175,700,l),
(25,416,l)
);
}
);
width = 428;
}
);
unicode = 94;
},
{
glyphname = percent;
lastChange = "2026-01-19 15:34:25 +0000";
layers = (
{
layerId = m01;
shapes = (
{
closed = 1;
nodes = (
(195,0,l),
(726,700,l),
(643,700,l),
(112,0,l)
);
},
{
closed = 1;
nodes = (
(293,358,o),
(351,424,o),
(351,533,cs),
(351,641,o),
(293,707,o),
(198,707,cs),
(104,707,o),
(45,641,o),
(45,533,cs),
(45,424,o),
(104,358,o),
(198,358,cs)
);
},
{
closed = 1;
nodes = (
(146,421,o),
(114,463,o),
(114,533,cs),
(114,602,o),
(146,645,o),
(198,645,cs),
(250,645,o),
(283,602,o),
(283,533,cs),
(283,463,o),
(250,421,o),
(198,421,cs)
);
},
{
closed = 1;
nodes = (
(737,-8,o),
(795,58,o),
(795,167,cs),
(795,275,o),
(737,341,o),
(642,341,cs),
(548,341,o),
(489,275,o),
(489,167,cs),
(489,58,o),
(548,-8,o),
(642,-8,cs)
);
},
{
closed = 1;
nodes = (
(590,55,o),
(558,97,o),
(558,167,cs),
(558,236,o),
(590,279,o),
(642,279,cs),
(694,279,o),
(727,236,o),
(727,167,cs),
(727,97,o),
(694,55,o),
(642,55,cs)
);
}
);
width = 840;
},
{
layerId = m002;
shapes = (
{
closed = 1;
nodes = (
(195,0,l),
(726,700,l),
(643,700,l),
(112,0,l)
);
},
{
closed = 1;
nodes = (
(293,358,o),
(351,424,o),
(351,533,cs),
(351,641,o),
(293,707,o),
(198,707,cs),
(104,707,o),
(45,641,o),
(45,533,cs),
(45,424,o),
(104,358,o),
(198,358,cs)
);
},
{
closed = 1;
nodes = (
(146,421,o),
(114,463,o),
(114,533,cs),
(114,602,o),
(146,645,o),
(198,645,cs),
(250,645,o),
(283,602,o),
(283,533,cs),
(283,463,o),
(250,421,o),
(198,421,cs)
);
},
{
closed = 1;
nodes = (
(737,-8,o),
(795,58,o),
(795,167,cs),
(795,275,o),
(737,341,o),
(642,341,cs),
(548,341,o),
(489,275,o),
(489,167,cs),
(489,58,o),
(548,-8,o),
(642,-8,cs)
);
},
{
closed = 1;
nodes = (
(590,55,o),
(558,97,o),
(558,167,cs),
(558,236,o),
(590,279,o),
(642,279,cs),
(694,279,o),
(727,236,o),
(727,167,cs),
(727,97,o),
(694,55,o),
(642,55,cs)
);
}
);
width = 840;
}
);
unicode = 37;
},
{
glyphname = dieresiscomb;
lastChange = "2026-01-19 15:34:25 +0000";
layers = (
{
anchors = (
{
name = _top;
pos = (196,500);
},
{
name = top;
pos = (196,697);
}
);
layerId = m01;
shapes = (
{
closed = 1;
nodes = (
(157,600,l),
(157,697,l),
(61,697,l),
(61,600,l)
);
},
{
closed = 1;
nodes = (
(330,600,l),
(330,697,l),
(234,697,l),
(234,600,l)
);
}
);
width = 391;
},
{
anchors = (
{
name = _top;
pos = (196,500);
},
{
name = top;
pos = (196,697);
}
);
layerId = m002;
shapes = (
{
closed = 1;
nodes = (
(157,600,l),
(157,697,l),
(61,697,l),
(61,600,l)
);
},
{
closed = 1;
nodes = (
(330,600,l),
(330,697,l),
(234,697,l),
(234,600,l)
);
}
);
width = 391;
}
);
unicode = 776;
},
{
glyphname = dotaccentcomb;
lastChange = "2026-01-19 15:34:25 +0000";
layers = (
{
anchors = (
{
name = _top;
pos = (109,500);
},
{
name = top;
pos = (109,697);
}
);
layerId = m01;
shapes = (
{
closed = 1;
nodes = (
(157,600,l),
(157,697,l),
(61,697,l),
(61,600,l)
);
}
);
width = 218;
},
{
anchors = (
{
name = _top;
pos = (109,500);
},
{
name = top;
pos = (109,697);
}
);
layerId = m002;
shapes = (
{
closed = 1;
nodes = (
(157,600,l),
(157,697,l),
(61,697,l),
(61,600,l)
);
}
);
width = 218;
}
);
unicode = 775;
},
{
glyphname = gravecomb;
lastChange = "2026-01-19 15:34:25 +0000";
layers = (
{
anchors = (
{
name = _top;
pos = (140,500);
},
{
name = top;
pos = (140,700);
}
);
layerId = m01;
shapes = (
{
closed = 1;
nodes = (
(182,577,l),
(102,700,l),
(5,700,l),
(111,577,l)
);
}
);
width = 260;
},
{
anchors = (
{
name = _top;
pos = (140,500);
},
{
name = top;
pos = (140,700);
}
);
layerId = m002;
shapes = (
{
closed = 1;
nodes = (
(182,577,l),
(102,700,l),
(5,700,l),
(111,577,l)
);
}
);
width = 260;
}
);
unicode = 768;
},
{
glyphname = acutecomb;
lastChange = "2026-01-19 15:34:25 +0000";
layers = (
{
anchors = (
{
name = _top;
pos = (120,500);
},
{
name = top;
pos = (120,700);
}
);
layerId = m01;
shapes = (
{
closed = 1;
nodes = (
(262,700,l),
(165,700,l),
(85,577,l),
(156,577,l)
);
}
);
width = 260;
},
{
anchors = (
{
name = _top;
pos = (120,500);
},
{
name = top;
pos = (120,700);
}
);
layerId = m002;
shapes = (
{
closed = 1;
nodes = (
(262,700,l),
(165,700,l),
(85,577,l),
(156,577,l)
);
}
);
width = 260;
}
);
unicode = 769;
},
{
glyphname = hungarumlautcomb;
lastChange = "2026-01-19 15:34:25 +0000";
layers = (
{
anchors = (
{
name = _top;
pos = (195,500);
},
{
name = top;
pos = (195,700);
}
);
layerId = m01;
shapes = (
{
closed = 1;
nodes = (
(236,700,l),
(139,700,l),
(66,567,l),
(143,567,l)
);
},
{
closed = 1;
nodes = (
(386,700,l),
(289,700,l),
(216,567,l),
(293,567,l)
);
}
);
width = 390;
},
{
anchors = (
{
name = _top;
pos = (195,500);
},
{
name = top;
pos = (195,700);
}
);
layerId = m002;
shapes = (
{
closed = 1;
nodes = (
(236,700,l),
(139,700,l),
(66,567,l),
(143,567,l)
);
},
{
closed = 1;
nodes = (
(386,700,l),
(289,700,l),
(216,567,l),
(293,567,l)
);
}
);
width = 390;
}
);
unicode = 779;
},
{
glyphname = caroncomb.alt;
lastChange = "2026-01-19 15:34:25 +0000";
layers = (
{
anchors = (
{
name = _topright;
pos = (-1,700);
}
);
layerId = m01;
shapes = (
{
closed = 1;
nodes = (
(101,437,l),
(189,700,l),
(102,700,l),
(45,437,l)
);
}
);
width = 214;
},
{
anchors = (
{
name = _topright;
pos = (-1,700);
}
);
layerId = m002;
shapes = (
{
closed = 1;
nodes = (
(101,437,l),
(189,700,l),
(102,700,l),
(45,437,l)
);
}
);
width = 214;
}
);
},
{
glyphname = circumflexcomb;
lastChange = "2026-01-19 15:34:25 +0000";
layers = (
{
anchors = (
{
name = _top;
pos = (173,500);
},
{
name = top;
pos = (173,700);
}
);
layerId = m01;
shapes = (
{
closed = 1;
nodes = (
(173,644,l),
(241,577,l),
(325,577,l),
(210,700,l),
(135,700,l),
(20,577,l),
(104,577,l)
);
}
);
width = 345;
},
{
anchors = (
{
name = _top;
pos = (173,500);
},
{
name = top;
pos = (173,700);
}
);
layerId = m002;
shapes = (
{
closed = 1;
nodes = (
(173,644,l),
(241,577,l),
(325,577,l),
(210,700,l),
(135,700,l),
(20,577,l),
(104,577,l)
);
}
);
width = 345;
}
);
unicode = 770;
},
{
glyphname = caroncomb;
lastChange = "2026-01-19 15:34:25 +0000";
layers = (
{
anchors = (
{
name = _top;
pos = (173,500);
},
{
name = top;
pos = (173,700);
}
);
layerId = m01;
shapes = (
{
closed = 1;
nodes = (
(20,700,l),
(135,577,l),
(210,577,l),
(325,700,l),
(241,700,l),
(173,633,l),
(104,700,l)
);
}
);
width = 345;
},
{
anchors = (
{
name = _top;
pos = (173,500);
},
{
name = top;
pos = (173,700);
}
);
layerId = m002;
shapes = (
{
closed = 1;
nodes = (
(20,700,l),
(135,577,l),
(210,577,l),
(325,700,l),
(241,700,l),
(173,633,l),
(104,700,l)
);
}
);
width = 345;
}
);
unicode = 780;
},
{
glyphname = brevecomb;
lastChange = "2026-01-19 15:34:25 +0000";
layers = (
{
anchors = (
{
name = _top;
pos = (174,500);
},
{
name = top;
pos = (174,700);
}
);
layerId = m01;
shapes = (
{
closed = 1;
nodes = (
(243,700,l),
(243,664,o),
(212,636,o),
(174,636,cs),
(136,636,o),
(105,664,o),
(105,700,c),
(37,700,l),
(37,631,o),
(97,575,o),
(174,575,cs),
(251,575,o),
(311,631,o),
(311,700,c)
);
}
);
width = 348;
},
{
anchors = (
{
name = _top;
pos = (174,500);
},
{
name = top;
pos = (174,700);
}
);
layerId = m002;
shapes = (
{
closed = 1;
nodes = (
(243,700,l),
(243,664,o),
(212,636,o),
(174,636,cs),
(136,636,o),
(105,664,o),
(105,700,c),
(37,700,l),
(37,631,o),
(97,575,o),
(174,575,cs),
(251,575,o),
(311,631,o),
(311,700,c)
);
}
);
width = 348;
}
);
unicode = 774;
},
{
glyphname = ringcomb;
lastChange = "2026-01-19 15:34:25 +0000";
layers = (
{
anchors = (
{
name = _top;
pos = (174,500);
},
{
name = top;
pos = (174,772);
}
);
layerId = m01;
shapes = (
{
closed = 1;
nodes = (
(233,560,o),
(280,608,o),
(280,666,cs),
(280,724,o),
(233,772,o),
(174,772,cs),
(115,772,o),
(68,724,o),
(68,666,cs),
(68,608,o),
(115,560,o),
(174,560,cs)
);
},
{
closed = 1;
nodes = (
(144,613,o),
(120,636,o),
(120,666,cs),
(120,696,o),
(144,720,o),
(174,720,cs),
(204,720,o),
(228,696,o),
(228,666,cs),
(228,636,o),
(204,613,o),
(174,613,cs)
);
}
);
width = 348;
},
{
anchors = (
{
name = _top;
pos = (174,500);
},
{
name = top;
pos = (174,772);
}
);
layerId = m002;
shapes = (
{
closed = 1;
nodes = (
(233,560,o),
(280,608,o),
(280,666,cs),
(280,724,o),
(233,772,o),
(174,772,cs),
(115,772,o),
(68,724,o),
(68,666,cs),
(68,608,o),
(115,560,o),
(174,560,cs)
);
},
{
closed = 1;
nodes = (
(144,613,o),
(120,636,o),
(120,666,cs),
(120,696,o),
(144,720,o),
(174,720,cs),
(204,720,o),
(228,696,o),
(228,666,cs),
(228,636,o),
(204,613,o),
(174,613,cs)
);
}
);
width = 348;
}
);
unicode = 778;
},
{
glyphname = tildecomb;
lastChange = "2026-01-19 15:34:25 +0000";
layers = (
{
anchors = (
{
name = _top;
pos = (213,500);
},
{
name = top;
pos = (213,704);
}
);
layerId = m01;
shapes = (
{
closed = 1;
nodes = (
(114,593,l),
(114,622,o),
(132,642,o),
(158,642,cs),
(198,642,o),
(207,593,o),
(272,593,cs),
(334,593,o),
(376,638,o),
(376,704,c),
(311,704,l),
(311,674,o),
(293,654,o),
(268,654,cs),
(229,654,o),
(217,703,o),
(153,703,cs),
(92,703,o),
(50,658,o),
(50,593,c)
);
}
);
width = 426;
},
{
anchors = (
{
name = _top;
pos = (213,500);
},
{
name = top;
pos = (213,704);
}
);
layerId = m002;
shapes = (
{
closed = 1;
nodes = (
(114,593,l),
(114,622,o),
(132,642,o),
(158,642,cs),
(198,642,o),
(207,593,o),
(272,593,cs),
(334,593,o),
(376,638,o),
(376,704,c),
(311,704,l),
(311,674,o),
(293,654,o),
(268,654,cs),
(229,654,o),
(217,703,o),
(153,703,cs),
(92,703,o),
(50,658,o),
(50,593,c)
);
}
);
width = 426;
}
);
unicode = 771;
},
{
glyphname = macroncomb;
lastChange = "2026-01-19 15:34:25 +0000";
layers = (
{
anchors = (
{
name = _top;
pos = (242,500);
},
{
name = top;
pos = (242,697);
}
);
layerId = m01;
shapes = (
{
closed = 1;
nodes = (
(370,583,l),
(370,648,l),
(114,648,l),
(114,583,l)
);
}
);
width = 484;
},
{
anchors = (
{
name = _top;
pos = (242,500);
},
{
name = top;
pos = (242,697);
}
);
layerId = m002;
shapes = (
{
closed = 1;
nodes = (
(370,583,l),
(370,648,l),
(114,648,l),
(114,583,l)
);
}
);
width = 484;
}
);
unicode = 772;
},
{
glyphname = commaturnedabovecomb;
lastChange = "2026-01-19 15:34:25 +0000";
layers = (
{
anchors = (
{
name = _top;
pos = (80,500);
},
{
name = top;
pos = (150,700);
}
);
layerId = m01;
shapes = (
{
closed = 1;
nodes = (
(124,700,l),
(36,575,l),
(123,575,l),
(180,700,l)
);
}
);
width = 215;
},
{
anchors = (
{
name = _top;
pos = (80,500);
},
{
name = top;
pos = (150,700);
}
);
layerId = m002;
shapes = (
{
closed = 1;
nodes = (
(124,700,l),
(36,575,l),
(123,575,l),
(180,700,l)
);
}
);
width = 215;
}
);
unicode = 786;
},
{
glyphname = commaaccentcomb;
lastChange = "2026-01-19 15:34:25 +0000";
layers = (
{
anchors = (
{
name = _bottom;
pos = (129,0);
},
{
name = bottom;
pos = (98,-244);
}
);
layerId = m01;
shapes = (
{
closed = 1;
nodes = (
(92,-234,l),
(180,-79,l),
(93,-79,l),
(36,-234,l)
);
}
);
width = 195;
},
{
anchors = (
{
name = _bottom;
pos = (129,0);
},
{
name = bottom;
pos = (98,-244);
}
);
layerId = m002;
shapes = (
{
closed = 1;
nodes = (
(92,-234,l),
(180,-79,l),
(93,-79,l),
(36,-234,l)
);
}
);
width = 195;
}
);
unicode = 806;
},
{
glyphname = cedillacomb;
lastChange = "2026-01-19 15:34:25 +0000";
layers = (
{
anchors = (
{
name = _bottom;
pos = (76,0);
},
{
name = bottom;
pos = (103,-188);
}
);
layerId = m01;
shapes = (
{
closed = 1;
nodes = (
(80,-211,ls),
(151,-211,o),
(191,-180,o),
(191,-129,cs),
(191,-80,o),
(158,-52,o),
(100,-49,c),
(100,-7,l),
(100,16,l),
(54,16,l),
(39,-97,l),
(80,-97,ls),
(109,-97,o),
(126,-108,o),
(126,-129,cs),
(126,-149,o),
(109,-160,o),
(80,-160,cs),
(23,-160,l),
(23,-211,l)
);
}
);
width = 206;
},
{
anchors = (
{
name = _bottom;
pos = (76,0);
},
{
name = bottom;
pos = (103,-188);
}
);
layerId = m002;
shapes = (
{
closed = 1;
nodes = (
(80,-211,ls),
(151,-211,o),
(191,-180,o),
(191,-129,cs),
(191,-80,o),
(158,-52,o),
(100,-49,c),
(100,-7,l),
(100,16,l),
(54,16,l),
(39,-97,l),
(80,-97,ls),
(109,-97,o),
(126,-108,o),
(126,-129,cs),
(126,-149,o),
(109,-160,o),
(80,-160,cs),
(23,-160,l),
(23,-211,l)
);
}
);
width = 206;
}
);
unicode = 807;
},
{
glyphname = ogonekcomb;
lastChange = "2026-01-19 15:34:25 +0000";
layers = (
{
anchors = (
{
name = _ogonek;
pos = (170,0);
}
);
layerId = m01;
shapes = (
{
closed = 1;
nodes = (
(143,-185,o),
(164,-180,o),
(177,-172,c),
(177,-112,l),
(163,-119,o),
(148,-124,o),
(131,-124,cs),
(111,-124,o),
(94,-115,o),
(94,-93,cs),
(94,-65,o),
(124,-25,o),
(170,0,c),
(110,16,l),
(53,-18,o),
(16,-65,o),
(16,-108,cs),
(16,-153,o),
(58,-185,o),
(119,-185,cs)
);
}
);
width = 227;
},
{
anchors = (
{
name = _ogonek;
pos = (170,0);
}
);
layerId = m002;
shapes = (
{
closed = 1;
nodes = (
(143,-185,o),
(164,-180,o),
(177,-172,c),
(177,-112,l),
(163,-119,o),
(148,-124,o),
(131,-124,cs),
(111,-124,o),
(94,-115,o),
(94,-93,cs),
(94,-65,o),
(124,-25,o),
(170,0,c),
(110,16,l),
(53,-18,o),
(16,-65,o),
(16,-108,cs),
(16,-153,o),
(58,-185,o),
(119,-185,cs)
);
}
);
width = 227;
}
);
unicode = 808;
},
{
glyphname = dotaccent;
lastChange = "2026-01-19 15:34:25 +0000";
layers = (
{
layerId = m01;
shapes = (
{
closed = 1;
nodes = (
(157,600,l),
(157,697,l),
(61,697,l),
(61,600,l)
);
}
);
width = 218;
},
{
layerId = m002;
shapes = (
{
closed = 1;
nodes = (
(157,600,l),
(157,697,l),
(61,697,l),
(61,600,l)
);
}
);
width = 218;
}
);
unicode = 729;
},
{
glyphname = grave;
lastChange = "2026-01-19 15:34:25 +0000";
layers = (
{
layerId = m01;
shapes = (
{
closed = 1;
nodes = (
(235,537,l),
(132,700,l),
(45,700,l),
(168,537,l)
);
}
);
width = 280;
},
{
layerId = m002;
shapes = (
{
closed = 1;
nodes = (
(235,537,l),
(132,700,l),
(45,700,l),
(168,537,l)
);
}
);
width = 280;
}
);
unicode = 96;
},
